<?xml version="1.0" encoding="utf-8"?>
<svg viewBox="0 0 32 32" xmlns="http://www.w3.org/2000/svg">
  <defs>
    <linearGradient id="gradient-3" gradientUnits="userSpaceOnUse" x1="250" y1="0" x2="250" y2="500" spreadMethod="pad" gradientTransform="matrix(0.063963, 0, 0, 0.063963, -0.010428, -0.121805)">
      <stop offset="0" style="stop-color: rgb(247, 191, 44);"/>
      <stop offset="1" style="stop-color: rgb(205, 94, 41);"/>
    </linearGradient>
    <linearGradient id="gradient-1" gradientUnits="userSpaceOnUse" x1="250" y1="20" x2="250" y2="480" gradientTransform="matrix(0.06416, 0, 0, 0.064161, -0.059942, -0.217158)">
      <stop style="stop-color: rgb(255, 253, 90);" offset="0"/>
      <stop style="stop-color: rgb(227, 140, 43);" offset="1"/>
    </linearGradient>
    <linearGradient id="gradient-4" gradientUnits="userSpaceOnUse" x1="253.44439697265625" y1="238.4842529296875" x2="253.44439697265625" y2="480" gradientTransform="matrix(0.063964, 0, 0, 0.063963, -0.010483, -0.121685)">
      <stop style="stop-color: rgb(247, 192, 40);" offset="0"/>
      <stop offset="1" style="stop-color: rgb(212, 126, 27);"/>
    </linearGradient>
    <radialGradient id="gradient-6" gradientUnits="userSpaceOnUse" cx="255.1620635986328" cy="260.2457580566406" r="170" gradientTransform="matrix(0.074367, 0, 0, 0.074366, -2.675198, -2.844172)">
      <stop style="stop-color: rgb(248, 237, 51);" offset="0"/>
      <stop offset="0.6244" style="stop-color: rgb(248, 237, 51);"/>
      <stop offset="0.7638" style="stop-color: rgb(239, 213, 43);"/>
      <stop offset="0.8931" style="stop-color: rgb(150, 109, 22);"/>
      <stop style="stop-color: rgb(191, 80, 0);" offset="1"/>
    </radialGradient>
    <linearGradient id="gradient-7" gradientUnits="userSpaceOnUse" x1="-277.8105010986328" y1="561.8806762695312" x2="-277.8105010986328" y2="796.8161010742188" gradientTransform="matrix(0.669377, -0.07373, 0.07373, 0.669376, 399.053868, 250.137926)">
      <stop offset="0" style="stop-color: rgb(193, 134, 8);"/>
      <stop offset="1" style="stop-color: rgb(202, 106, 16);"/>
    </linearGradient>
    <linearGradient id="gradient-7-2" gradientUnits="userSpaceOnUse" x1="-277.8105010986328" y1="561.8806762695312" x2="-277.8105010986328" y2="796.8161010742188" gradientTransform="matrix(0.3598424288589108, 0.0014199120748252486, -0.0008651188746076439, 0.21927866751948855, -159.19165838772352, 375.4938512765719)">
      <stop style="stop-color: rgb(255, 190, 0);" offset="0"/>
      <stop style="stop-color: rgb(214, 120, 32);" offset="1"/>
    </linearGradient>
    <radialGradient id="gradient-12" gradientUnits="userSpaceOnUse" cx="-314.4753112792969" cy="611.8270263671875" r="126.30323791503906" gradientTransform="matrix(1.1160329276951277, 0, 0, 1.1160334249562183, 24.30159432705809, -88.79756113141326)">
      <stop offset="0" style="stop-color: rgb(255, 197, 49);"/>
      <stop style="stop-color: rgba(255, 238, 49, 0);" offset="1"/>
    </radialGradient>
    <radialGradient id="gradient-20" gradientUnits="userSpaceOnUse" cx="-283.0146484375" cy="510.7113952636719" r="55.76831817626953" gradientTransform="matrix(0.6625576282626338, -0.5531133047923916, 1.2298754256288325, 1.4732364008060554, -723.6123845453899, -398.2264071794646)">
      <stop offset="0" style="stop-color: rgb(255, 237, 49);"/>
      <stop style="stop-color: rgba(255, 237, 49, 0);" offset="1"/>
    </radialGradient>
    <linearGradient id="gradient-21" gradientUnits="userSpaceOnUse" x1="-272.5911560058594" y1="544.911376953125" x2="-272.5911560058594" y2="807.1071166992188">
      <stop style="stop-color: rgb(246, 189, 44);" offset="0"/>
      <stop style="stop-color: rgb(191, 144, 26);" offset="1"/>
    </linearGradient>
    <linearGradient id="gradient-22" gradientUnits="userSpaceOnUse" x1="-254.775146484375" y1="499.4190673828125" x2="-254.775146484375" y2="577.36083984375">
      <stop style="stop-color: rgb(246, 189, 44);" offset="0"/>
      <stop style="stop-color: rgb(191, 144, 26);" offset="1"/>
    </linearGradient>
    <style id="bx-google-fonts">@import url(https://fonts.googleapis.com/css?family=Roboto:100,300,500,700,900,100italic,300italic,400,400italic,500italic,700italic,900italic);</style>
  </defs>
  <ellipse cx="15.98" cy="15.869" rx="15.99" ry="15.99" style="fill: url(#gradient-3);"/>
  <ellipse cx="15.98" cy="15.869" rx="14.711" ry="14.711" style="fill: url(#gradient-1);"/>
  <path style="fill: url(#gradient-4);" d="M 3.24 23.225 C 5.867 27.776 10.724 30.581 15.98 30.581 C 24.834 30.581 31.092 23.088 30.696 15.132 C 25.576 17.247 19.433 18.502 12.618 18.502 C 8.704 18.502 4.887 18.063 1.31 17.236 C 1.5 19.253 2.121 21.286 3.24 23.225 Z"/>
  <ellipse cx="15.98" cy="15.869" rx="10.874" ry="10.874" style="fill: url(#gradient-6); fill-opacity: 1;"/>
  <g id="glibre" transform="matrix(0.063963, 0, 0, 0.063963, -0.010329, -0.121798)">
    <g id="macron" transform="matrix(0.8414844870567323, 0, 0, 0.8414844870567323, 466.02239990234375, -317.1852722167969)">
      <path class="shadow" d="M -198.07891845703125 530.1440734863281 L -194.27288818359375 545.8901977539062 C -206.13536071777344 561.0767822265625 -219.18111437391306 568.8372878356159 -241.03024291992188 570.7368774414062 C -263.55621337890625 572.6953125 -290.6890869140625 569.7662963867188 -306.7577819824219 547.8799438476562 C -310.1243896484375 530.2078857421875 -311.372802734375 522.7608032226562 -311.372802734375 522.7608032226562 C -311.372802734375 522.7608032226562 -266.69651794433594 527.0515747070312 -252.45257568359375 525.4826049804688 C -240.829833984375 524.202392578125 -204.33926391601562 538.2872009277344 -198.07891845703125 530.1440734863281 Z " style="fill: url(#gradient-22); fill-opacity: 0.49;" transform="matrix(1.0000000000000002, 0, 0, 1.0000000000000002, 0, -23.76752082315636)"/>
      <path class="depth" d="M -202.59629821777344 516.2670593261719 L -200.2147674560547 522.2083129882812 C -211.14907836914062 536.2066650390625 -227.52011108398438 546.26318359375 -247.61410522460938 548.4764404296875 C -272.4909973144531 551.216552734375 -296.9399719238281 540.476806640625 -311.75140380859375 520.3029174804688 C -313.5248107910156 515.834716796875 -314.11236572265625 514.4194641113281 -314.11236572265625 514.4194641113281 C -314.11236572265625 514.4194641113281 -264.3653564453125 517.041259765625 -251.2359161376953 515.5950927734375 C -240.5225830078125 514.4150390625 -208.3668212890625 523.7730407714844 -202.59629821777344 516.2670593261719 Z " style="fill: rgb(191, 80, 0);" transform="matrix(1, 0, 0, 1, 2.376751661300659, -15.448883620706795)"/>
      <path class="main" d="M -226.04393005371094 501.504638671875 L -200.2147674560547 522.2083129882812 C -211.14907836914062 536.2066650390625 -227.52011108398438 546.26318359375 -247.61410522460938 548.4764404296875 C -272.4909973144531 551.216552734375 -296.9399719238281 540.476806640625 -311.75140380859375 520.3029174804688 C -297.8028564453125 509.72064208984375 -300.5026550292969 512.0447998046875 -285.0860595703125 500.7257080078125 C -277.26898193359375 511.3730773925781 -264.3653564453125 517.041259765625 -251.2359161376953 515.5950927734375 C -240.5225830078125 514.4150390625 -231.814453125 509.0106201171875 -226.04393005371094 501.504638671875 Z " style="fill: url(#gradient-7-2);" transform="matrix(1, 0, 0, 1, 8.722895472601522e-8, -21.39076670786494)"/>
      <path class="gold-layer" d="M -226.04393005371094 501.504638671875 L -200.2147674560547 522.2083129882812 C -211.14907836914062 536.2066650390625 -227.52011108398438 546.26318359375 -247.61410522460938 548.4764404296875 C -272.4909973144531 551.216552734375 -291.1310119628906 536.9268798828125 -305.94244384765625 516.7529907226562 C -291.993896484375 506.17071533203125 -300.5026550292969 512.0447998046875 -285.0860595703125 500.7257080078125 C -277.26898193359375 511.3730773925781 -264.3653564453125 517.041259765625 -251.2359161376953 515.5950927734375 C -240.5225830078125 514.4150390625 -231.814453125 509.0106201171875 -226.04393005371094 501.504638671875 Z " style="fill: url(#gradient-20);" transform="matrix(1, 0, 0, 1, 0, -21.390768667594557)"/>
    </g>
    <g id="G" transform="matrix(0.8414844870567323, 0, 0, 0.8414844870567323, 466.02239990234375, -317.1852722167969)">
      <path class="G shadow" d="M -231.25119018554688 697.4671630859375 L -145.43577575683594 654.5354614257812 L -139.4804229736328 698.4963989257812 L -139.4804229736328 792.3257446289062 L -163.85057067871094 767.95556640625 C -187.0584716796875 791.7545166015625 -219.57203674316406 807.1071166992188 -257.4039001464844 807.1071166992188 C -304.2406921386719 807.1071166992188 -347.5196533203125 782.119873046875 -370.9380187988281 741.55810546875 C -385.0118408203125 717.1815185546875 -393.85595703125 672.889892578125 -397.2654724121094 646.9841918945312 C -405.70189815867235 582.8837272194789 -330.17547607421875 544.911376953125 -257.4039001464844 544.911376953125 C -236.36082458496094 544.911376953125 -151.81651306152344 565.3455200195312 -151.81651306152344 565.3455200195312 C -151.81651306152344 565.3455200195312 -147.85987854003906 584.044921875 -145.71006774902344 609.4464111328125 L -199.70428466796875 638.954345703125 C -212.39840698242188 619.2657470703125 -233.82334899902344 606.8186645507812 -257.4039001464844 606.8186645507812 C -310.6667785644531 606.8186645507812 -343.9560546875 664.4774169921875 -317.32452392578125 710.6044311523438 C -304.9649353027344 732.0121459960938 -282.123291015625 745.1998291015625 -257.4039001464844 745.1998291015625 C -237.23342895507812 745.1998291015625 -217.86883544921875 735.0439453125 -205.59674072265625 722.263916015625 L -231.25119018554688 697.4671630859375 Z " style="fill: url(#gradient-21); fill-opacity: 0.5;" transform="matrix(1.0000000000000002, 0, 0, 1.0000000000000002, 13.072136489359082, 46.346656799316406)"/>
      <path class="G depth" d="M -231.25119018554688 697.4671630859375 L -145.3538055419922 691.9776611328125 L -139.4804229736328 698.4963989257812 L -139.4804229736328 792.3257446289062 L -163.85057067871094 767.95556640625 C -187.0584716796875 791.7545166015625 -219.57203674316406 807.1071166992188 -257.4039001464844 807.1071166992188 C -304.2406921386719 807.1071166992188 -347.5196533203125 782.119873046875 -370.9380187988281 741.55810546875 C -421.3976135253906 654.1594848632812 -358.32318115234375 544.911376953125 -257.4039001464844 544.911376953125 C -211.04515075683594 544.911376953125 -169.28904724121094 569.6143188476562 -145.71006774902344 609.4464111328125 L -199.70428466796875 638.954345703125 C -212.39840698242188 619.2657470703125 -233.82334899902344 606.8186645507812 -257.4039001464844 606.8186645507812 C -310.6667785644531 606.8186645507812 -343.9560546875 664.4774169921875 -317.32452392578125 710.6044311523438 C -304.9649353027344 732.0121459960938 -282.123291015625 745.1998291015625 -257.4039001464844 745.1998291015625 C -237.23342895507812 745.1998291015625 -217.86883544921875 735.0439453125 -205.59674072265625 722.263916015625 L -231.25119018554688 697.4671630859375 Z " style="fill: rgb(191, 80, 0);" transform="matrix(1, 0, 0, 1, 7.130256088765918, 2.3767521381377605)"/>
      <path class="G main" d="M -246.577 673.823 L -119.899 674.71 L -120.787 805.827 L -162.025 763.701 C -185.233 787.5 -217.747 802.853 -255.578 802.853 C -302.415 802.853 -345.694 777.865 -369.113 737.304 C -419.572 649.905 -356.498 540.657 -255.578 540.657 C -209.22 540.657 -166.347 565.136 -142.768 604.969 L -197.432 634.253 C -210.126 614.564 -231.998 602.564 -255.578 602.564 C -308.841 602.564 -342.131 660.223 -315.499 706.35 C -303.139 727.758 -280.298 740.945 -255.578 740.945 C -235.408 740.945 -218.102 732.676 -205.83 719.896 L -246.577 673.823 Z" style="fill: url(#gradient-7);"/>
      <path class="G gold-layer" d="M -332.6200256347656 704.9721069335938 C -320.1494445800781 726.3154907226562 -343.8333435058594 770.9927978515625 -367.251708984375 730.4309692382812 C -417.7113342285156 643.0324096679688 -362.6292419433594 545.2733154296875 -261.7099304199219 545.2733154296875 C -215.35118103027344 545.2733154296875 -184.96620178222656 561.2610473632812 -161.38720703125 601.0931396484375 L -201.56544494628906 620.88671875 C -214.25958251953125 601.1981201171875 -237.62985229492188 589.1978149414062 -261.21038818359375 589.1978149414062 C -314.4732666015625 589.1978149414062 -367.7434997558594 644.8583984375 -332.6200256347656 704.9721069335938 Z " style="fill: url(#gradient-12); fill-opacity: 1;" transform="matrix(1, 0, 0, 1, 7.130256088765918, 2.3767521381377605)"/>
    </g>
  </g>
  <path id="gloss" style="fill: rgb(255, 255, 255); fill-opacity: 0.2;" d="M 1.26 15.28 C 3.224 15.489 5.235 15.597 7.271 15.597 C 16.128 15.597 23.865 13.672 29.725 10.602 C 29.45 9.898 29.117 9.199 28.721 8.513 C 26.092 3.962 21.237 1.158 15.98 1.158 C 7.621 1.158 1.575 7.837 1.26 15.28 Z"/>
  <g id="flare" transform="matrix(0.014238, 0.004696, -0.004696, 0.014238, -0.444356, -0.611982)">
    <ellipse cx="1134.459" cy="985.887" rx="439.828" ry="39.221" style="fill: rgb(255, 255, 255); fill-opacity: 0.75;" transform="matrix(1, 0, 0, 0.999999, 0, -685.307003)"/>
    <ellipse transform="matrix(0, 1, -1.000004, 0, 5139.523763, -1435.69165)" cx="1736.271" cy="4005.051" rx="439.828" ry="33.468" style="fill: rgb(255, 255, 255); fill-opacity: 0.75;"/>
  </g>
  <text x="-1.786" y="48.999" style="font-size: 12.9px; font-family: Roboto; white-space: pre;">Not made for larger than 32px</text>
</svg>