<svg version="1.1" xmlns="http://www.w3.org/2000/svg" xmlns:xlink="http://www.w3.org/1999/xlink" x="0px" y="0px" viewBox="0 0 293.406 320" enable-background="new 0 0 293.406 320" xml:space="preserve">
    <defs>
        <style type="text/css">
            #Map .regions
            {
                fill: #472b67;
                fill-opacity: 1;
                stroke: white;
                stroke-opacity: 1;
                stroke-width:0.5;
                stroke-linecap: round;
                stroke-linejoin: round;
                stroke-miterlimit: 10;
                -webkit-transition: all 500ms;
                cursor: pointer;
            }
            #Map &gt; .regions:hover
            {
                fill: #70b002;
            }
            #Map &gt; g:hover &gt; .regions
            {
                fill: #70b002;
            }
            .map-svg
            {
                                        margin-left: 10%;
                text-align: right;
                                    }
            #regions_list
            {
                text-align: left;
                column-count: 2;
            }
            @media (max-width: 900px)
            {
                .map-svg
                {
                    margin: auto;
                }
            }

        </style>
    </defs>

    <g id="Map">
        <path data-name="Auvergne-Rhône-Alpes" data-ann-count="1 annonce" data-link="annonces/offres/Auvergne-Rhone-Alpes" data-fillover="#70b002" data-fillout="#472b67" class="regions reg_1" d="
        M184.553,206.132l0.277-0.092l2.09,5.326l2.996-0.924l0.222-1.387h1.165l0.462,1.609
        l2.145-0.518l2.663,3.402l0.277,0.352l0.813,4.253l1.96,2.127l-0.333,2.441l2.459,1.479v3.273l1.313-0.666l2.774,1.813l1.313,0.48
        l0.314-2.293l1.646-0.314l0.481,1.793l1.646-0.167l0.314-1.793l3.754,2.108l0.61-1.239l1.59-0.241l1.535-0.222l0.685,0.813
        l-0.333,2.312l0.462,0.573l1.72-1.738l1.516-0.111l0.333-0.925l-1.96-0.24l-0.333-2.071l1.257-1.96l1.627-0.129l1.609,1.516
        l-1.609,2.182l0.462,0.814l2.312,0.24l1.498-1.276l-0.813,1.738l0.24,1.387l2.423,0.222l3.236,0.24l0.462,1.498l1.738,1.276
        l1.498,0.111l1.035-0.925l0.592-1.738l0.925,0.813l0.684,0.813l0.462-4.29l-1.146-0.222l-0.703-1.498l-3.92-1.054l-0.481-1.96
        l1.405-0.925l-1.165-0.813l0.24-1.036l1.849,0.111l1.609,0.813l1.276-1.498l-1.276-1.036l0.111-1.387l0.703-2.201l2.423-0.24
        l1.96-0.795l0.204-0.462l0.148-0.351l-0.925-0.462v-1.387h2.884l0.925-0.924l-0.573-1.036l1.498-1.165l1.054,0.462l1.498-1.276
        l2.645,0.462l0.925-1.036l2.201,0.111v-2.534l-0.926-0.462l-0.461-1.498l-2.423-0.24l-0.351-0.573l0.462-2.423l0.813-0.703
        l2.09-0.222l0.684,0.684l0.352,1.627l2.07-0.241l0.24-1.738l1.037-0.462l2.219,0.111l-0.037-0.074l3.457-1.387l1.277,0.813h1.275
        l0.111-1.387l1.498-0.813l0.572-0.685l3.016-1.165l0.35-1.96l-0.592-0.925l1.629-2.773l-1.498-0.573l-0.463-1.627l-3.125-1.849
        c0,0,0.186-3.543-0.111-4.179c-0.01-0.017-0.029-0.046-0.037-0.056c-0.004-0.003-0.016-0.016-0.018-0.019c-0.002,0-0.018,0-0.02,0
        c0-0.004,0-0.017,0-0.019c-0.002,0-0.018,0-0.018,0c-0.002,0-0.018,0-0.02,0s-0.018,0-0.018,0
        c-0.463,0.116-2.182,0.241-2.182,0.241l-1.738-1.979l0.055-1.905l0.055-2.016l3.939-1.627l0.463-1.146l-0.24-2.552l-2.533-2.645
        l-0.814,0.462v-1.054v-1.72l-2.201-1.054l-0.109-0.925l1.275-1.387v-1.609l-2.09-2.201l-0.111-1.498h-3.939l-2.643,0.462
        l-2.553,2.071l-0.684-1.036l-1.276,0.111l-1.165,2.552l0.13,1.036l1.257,1.035l-2.312,1.517l-1.497,1.387h-2.553h-1.257v-2.2
        l1.387-0.814l2.071-0.222l0.129-1.165l-0.702-0.462l1.738-2.201l-0.24-0.684l-1.979-1.054l-4.808,5.289h-3.347v-1.387l-1.849-0.924
        l-2.201,2.422l-1.738,0.24v-1.627l-1.498-0.684l-2.312-3.236l-2.09-0.814l-0.684-1.498l-1.165-0.241l-1.146,0.814l-0.925,0.24
        l-1.276-1.054l-1.276,0.129l-0.813,1.498l-2.182,8.543l-0.314,0.703l-0.388,0.925l-0.814-0.111l-0.444-2.312l-0.592-1.849
        l-1.257,0.111l-1.054,1.036l-0.684-0.924l-1.036,0.924l-1.405-0.924h-1.146l-0.462,0.351l-0.24,1.332l-0.444,2.367h-1.276
        l-0.925,0.924l-0.703-0.703l-3.698-0.573l-1.387,0.813h-0.924l-0.222-0.813l-1.738-0.352l-0.111-1.849l-0.352-0.111l-0.167,0.019
        l0.056-0.129l2.422-1.849l0.111-4.512l-0.814-1.146h-1.849l-0.684-0.925h-1.96l-0.573-0.703v-1.738l-2.33-4.383l-1.146-0.813
        l-2.201,3.014l-0.924,0.222l-0.352-1.498l-1.036-0.462l-0.462,0.925h-1.72l-0.241-1.036l-1.165,0.684l-1.257,0.703l-1.387-1.516
        l-1.979-0.925l-0.111-1.498l-2.663-0.222l-1.609,2.071l-0.925,0.111l-1.036,1.054l-1.165-1.276l-3.106,3.125v1.849l0.573,0.462
        l0.111,0.925l-1.609,1.257l-1.517-0.462l-2.885,0.592l-1.498,1.72l-0.555,1.184l0.092-0.019l1.387,1.96v1.387l0.795,1.036
        l0.813-1.036l0.925,1.627l1.276,0.462l1.276,2.996l0.056,0.869l0.167,2.718l0.924,1.146l0.462,2.201l-1.387,1.035l-0.333,1.627
        l-1.276,0.684l-2.201,1.276l0.222,1.035l2.663,2.663l0.24,1.627l-1.054,1.72v1.627l0.703,0.813l0.351,1.96l-0.222,0.795
        l-0.352,1.276l0.573,1.387l-0.703,0.814h-1.146l-1.165-1.276l-1.036-0.573l-0.111,3.236l-2.089,1.276l-1.498,2.071l0.352,2.09
        l-0.462,0.924l-0.592,1.849h-0.925l-0.924,1.146l0.703,0.703l0.462,1.146l-1.498,1.054l0.61,3.865l1.96,1.461l-1.479,3.439
        l1.479,0.647l-0.647,1.96l1.294,0.167l0.98-1.627h1.646l0.314,0.48h3.606l0.647-1.46l0.813-0.333l0.333-2.607h0.813v-2.774
        l3.273-2.792l0.333,0.5l0.314,2.126l2.294-0.333l0.499,3.273h1.128l0.333,3.273l1.017,1.258l1.664-3.828l1.627-5.085l2.071,1.387
        l0.924-2.071L184.553,206.132z" style="fill: rgb(71, 43, 103);"></path>
    <path data-name="Bourgogne-Franche-Comté" data-ann-count="1 annonce" data-link="annonces/offres/Bourgogne-Franche-Comte" data-fillover="#70b002" data-fillout="#472b67" class="regions reg_2" d="
        M247.556,149.675l0.019-0.111l7.156-6.713l-0.221-5.547l2.533-1.258l1.738-0.813
        l1.609-1.498l0.129-2.2l1.609-0.814l3.697-4.271l-0.572-1.387l1.275-0.573l1.498-1.849l-0.814-0.813l-2.773,0.573l-0.111-0.462
        l2.553-2.94l0.443-0.518l1.535-0.24l-0.574-2.459l-0.352-1.276l-1.627,0.24l-0.221-1.387l0.572-1.054l0.111-1.387l-0.332-0.795
        l-2.09-1.627l-1.85-0.111l-0.352-0.703l-0.111-0.222l-3.697-1.96l-1.037-1.165l-1.035-0.684l-0.924,0.462l-0.131,0.684
        l-0.924,0.573h-0.573l-1.738-1.96h-2.423l-1.035,0.814l-0.925,0.111l-1.498-1.146l0.111-1.276l-0.592-0.462l-2.182,0.352
        l-0.352,1.146l-1.165,0.813l-0.795-0.925l-0.574,0.352l0.444,0.684l-1.146,0.703l0.352,0.925l-1.276,0.462v1.498h-1.627
        l-0.111,0.925l-1.609,0.352l0.111,1.387l1.036,0.111l-0.573,0.684l-0.352,2.312h-1.035l-1.738,0.703l-1.85-0.703l-1.609,0.703
        v1.165l-0.111-0.018l-0.48,1.165l-2.534,0.573l-0.24-0.573l-1.849-2.312l-1.036,0.573l-1.387-0.111l-0.462-0.924l-1.85,0.111
        l-0.111-1.96l-1.036-0.703l1.498-1.608l-2.663-3.588l-2.071-2.2l-1.85-1.036h-3.347l-0.241,1.498l-1.498,0.814l-3.81,0.111
        l-0.592,1.276l-0.813-0.111l-0.685-1.276l-2.312,1.165l-4.623-0.241l-0.573-1.276l-1.276-1.72l-0.222-2.089l-1.849-2.201
        l-1.165,0.813l-2.09-1.609l0.352-3.125l-2.996-3.125h-1.387l-0.813-0.685l-1.036,0.795l-4.512-0.222l-2.071,1.036l-0.813,1.738
        l0.925,1.036l-1.387,1.627l-1.054,1.257l2.089,1.979l0.573,1.85l1.517,1.608v2.09l-3.015,2.533l1.036,1.165l-0.222,1.72
        l-1.627,1.165h-2.312l0.352,1.276l1.498,2.071l0.352,1.849l0.351,1.276l-0.684,0.203l-1.627,0.481l0.111,1.165l1.387,1.609v2.2
        l-1.036,1.498l0.333,1.387l2.089,1.627l0.111,1.609l1.165,2.441l-0.241,2.774l1.276,1.257l-0.351,3.014l-0.111,1.498l0.573,1.036
        l-0.888,2.829l0.074,0.869l1.979,0.925l1.387,1.516l1.257-0.703l1.165-0.684l0.241,1.036h1.72l0.462-0.925l1.036,0.462l0.352,1.498
        l0.924-0.222l2.201-3.014l1.146,0.813l0.185,0.352l2.145,4.031v1.738l0.573,0.703h1.96l0.684,0.925h1.849l0.814,1.146l-0.111,4.512
        l-2.422,1.849l-0.056,0.129l0.167-0.019l0.352,0.111l0.111,1.849l1.738,0.352l0.222,0.813h0.924l1.387-0.813l3.698,0.573
        l0.703,0.703l0.925-0.924h1.276l0.684-3.699l0.462-0.351h1.146l1.405,0.924l1.036-0.924l0.684,0.924l1.054-1.036l1.257-0.111
        l0.592,1.849l0.444,2.312l0.814,0.111l0.703-1.627l2.182-8.543l0.813-1.498l1.276-0.129l1.276,1.054l0.925-0.24l1.146-0.814
        l1.165,0.241l0.684,1.498l0.666,0.259l1.424,0.555l2.312,3.236l1.498,0.684v1.627l1.738-0.24l2.201-2.422l1.849,0.924v1.387h3.347
        l4.808-5.289l-0.203-0.111l0.222-2.422l1.738-2.071l-1.165-0.462L247.556,149.675z" style="fill: rgb(71, 43, 103);"></path>
    <path data-name="Bretagne" data-ann-count="0 annonce" data-link="annonces/offres/Bretagne" data-fillover="#70b002" data-fillout="#472b67" class="regions reg_3" d="
        M78.561,109.734l-2.164-0.537l-1.036-1.387l-1.738-0.24l-0.111,1.276l-2.533,0.351l-1.165,1.146
        l-0.462,1.276l-7.157,0.352l-3.014,1.609l-0.111,3.236l-3.236,1.276l-2.2,1.146h-1.849l-0.685-0.795l-1.036,1.036l-0.499,0.092
        l0.013-0.001l-0.222-0.167l-0.111-1.054l0.795-0.684l-1.609-0.352l-6.25,0.573l-1.036-1.609l-1.387-0.462l0.924-1.165l1.738,0.813
        l1.498,0.462l0.573-0.925l-1.146-1.387l-1.498-0.352l0.333,0.814l-1.609,0.24l-1.276-1.738l0.703,1.609l-0.703,1.165l-1.498-1.276
        l-0.351-0.814l-0.462,1.387l-1.387-0.333v2.071l0.703,0.924l-0.703,0.813l-1.387-1.035l0.241-1.517l0.222-1.498l-0.684-1.276
        l-2.09-2.071l-1.609-0.703l0.333-1.258l-0.684,1.036l-1.849-0.462l-1.294-2.071l-0.093-0.129h-1.498l-1.979-0.352l-0.795-1.146
        l-0.129,0.684l-3.236-0.222l-1.498-2.423l-0.462-1.979v1.979l-1.146,0.222l-1.85-1.036l-1.054,0.111l-1.036-0.462l1.036,1.387
        l-0.573,1.036l-2.663,0.129l-2.422-0.462l0.813-1.627l-0.573-2.996l-2.441-2.774l-1.498,0.111l-1.035-0.924L1.387,96.51
        L0.24,95.826l0.795-1.054l3.939-0.222l2.312-0.352h1.387l1.498,0.111l0.703-1.257l-0.462-1.849l-1.165-0.241l-2.422-1.387
        l-1.276,1.96l-0.573,0.462l0.111-3.106l-2.071-0.703l1.609-1.85l2.663,1.276l2.2,0.573L12.26,88.3l0.111-0.684L9.82,87.504
        l0.462-1.627L7.97,86.913l-0.222-1.147l2.534-2.422l-2.885,2.071l-4.383,0.573l-0.351-0.462L1.96,86.229l-1.849-0.24l0.462-2.534
        L0,82.419l1.849-1.517l-1.387-1.036l1.627-1.96l3.106-0.111l0.24-1.387l0.925-0.462l0.813,0.573l1.85-0.111v-0.813l2.644-0.352
        l0.241,1.276l1.498-0.351l0.462-1.146l2.552-0.241l1.387,0.573l1.257-1.387l0.24,2.663l1.387-0.222l0.222,1.036h0.925v-2.312
        l3.236-0.111l1.979,1.146l1.609-2.201l-0.925-1.257l2.422-1.627l1.849,1.387l0.592-0.813l2.645-0.333l1.054-0.813l0.684,1.609
        l0.352-1.146h2.312l-0.111,1.276l1.258,0.111l-0.111,1.849l1.627,0.352v1.96l2.182,1.609l-0.222,2.09l2.422,1.146v2.089h0.924
        V82.29l4.272-2.312l0.703-1.387l2.071,0.352l1.387-1.036v2.312l0.813-0.925l1.165,0.352l0.111,1.609l1.387-0.111l0.222-1.276
        l2.201,0.241l0.74-0.833l1.109-1.257l2.774,0.111l-1.387,1.85l2.089,1.276h5.677l0.352,1.461l0.684,2.2l1.979,1.738l0.925,0.222
        l0.924-1.258l1.036-0.129l1.258-1.498l1.165,0.924h1.387l0.925,0.462l-0.111,3.236l0.573,0.462v2.312l-1.165,1.165v1.85
        l0.352,1.146v3.347l0.813,0.813v3.125l-1.96-0.24l-0.813,0.462l-1.498,3.698l-0.592,2.09l-0.444,0.924l-0.167-0.037L78.561,109.734
        z" style="fill: rgb(71, 43, 103);"></path>
    <path data-name="Centre-Val-de-Loire" data-ann-count="0 annonce" data-link="annonces/offres/Centre-Val-de-Loire" data-fillover="#70b002" data-fillout="#472b67" class="regions reg_4" d="
        M125.414,97.602l-1.257-0.204l-1.627-2.422h-0.462l-0.111,1.146l-0.111-0.795h-2.422
        l-1.165-1.738l-1.96-0.703l-0.573-4.161l-0.924-1.257l-3.125,0.111l-3.125,2.885l-1.627-0.092l-0.333-0.019l-0.592-2.09
        l-1.498-0.573l-0.462-2.533l-1.036-0.925l-1.146,0.111l-0.481,1.146l-1.72,0.703l-3.125-0.462l-3.125,1.849l-1.146-0.813
        L90.52,87.93l-1.276-0.924l-0.813-1.387l-1.72-0.703l-1.165,0.925l-1.96-0.24l-0.111,3.014l0.573,0.462v2.312l-1.165,1.165v1.85
        l0.352,1.146v3.347l0.813,0.813v3.125l-1.96-0.24l-0.813,0.462l-1.498,3.698l-0.592,2.09l-0.185,0.407l-0.259,0.518l-0.167-0.037
        l0.129,0.425v1.331l1.239,0.758l0.758,2.016l1.146,1.424l-1.517,1.35l0.092,1.701l0.573,0.481l2.09-0.277l1.72,1.609l0.388,2.385
        l-1.146,0.777l-3.717-0.093l-2.385,0.462l-1.332,0.685v1.128l1.239,1.535h1.239l0.092,1.627l0.481,0.481l-0.573,1.331l-0.962,0.277
        v0.869l-0.48,0.481l0.573,0.277l0.296-0.092h0.851l0.961,1.239l-0.037,1.202l0.222,0.037l0.961,0.573h2.959l1.572,1.331
        l2.201-0.943l3.587,0.813l1.609-1.054v-1.609l3.125-0.241l2.885-0.573l3.125-0.111l0.352,0.814l0.813,0.684l0.795-1.387
        l2.201-2.312h0.887h0.148l0.462,1.85l2.201,0.462v1.387l2.774,0.813v2.201l-0.111,1.387h3.458l3.014-0.703l-0.241-1.276
        l0.925-0.573l0.925,1.276l0.813,0.352l0.684,2.774l1.979,2.071l0.222,1.627l1.794,1.775l0.296,0.296v2.2l-0.462,1.387l2.201,1.738
        l1.146,1.146l1.849,0.24l0.703,2.422l1.257,0.685l-0.222,1.738l-0.925,0.166l0.333,0.074l2.903,0.222l1.036-1.035l1.849,1.849
        l2.312-2.663l1.036,0.703l1.387-0.129l0.462,0.241l2.089,0.111l0.685-1.849l5.788,0.703l2.2,0.573l0.999-0.111l2.719-0.333
        l0.555-1.184l1.498-1.72l2.885-0.592l1.517,0.462l1.609-1.257l-0.111-0.925l-0.573-0.462v-1.849l3.106-3.125l1.165,1.276
        l1.036-1.054l0.925-0.111l1.609-2.071l2.663,0.222l0.037,0.628l0.888-2.829l-0.573-1.036l0.111-1.498l0.351-3.014l-1.276-1.257
        l0.241-2.774l-1.165-2.441l-0.111-1.609l-2.089-1.627l-0.333-1.387l1.036-1.498v-2.2l-1.202-1.406l-0.185-0.203l-0.111-1.165
        l2.312-0.684l-0.351-1.276l-0.352-1.849l-1.498-2.071l-0.352-1.276h2.312l1.627-1.165l0.222-1.72l-1.036-1.165l3.015-2.533v-2.09
        l-1.517-1.608l-0.573-1.85l-2.089-1.979l-2.886,1.627l-0.222-0.925l-1.276-0.111l-0.352,0.925l-1.146,0.222l-3.125-0.111
        l-1.276,0.813l-1.035-0.924l1.849-1.276l-0.111-1.96l-1.387-0.703l-1.165-1.738l-3.106-0.222l-1.276-1.036l-1.498,1.387
        l-3.384,0.296l-0.314,0.037l-0.241-3.107l-0.24-0.351l-0.222-1.498l-2.422-0.462l-1.054-1.276l-0.333-2.552l-1.387-0.222
        l-0.24-1.276l-1.609-1.146l-0.813-1.979l0.813-1.387l-0.813-0.924v-1.146l0.462-1.276l-0.925-0.924l-0.352-1.387l-1.146-1.146
        l-0.703,0.573v1.85l-2.312,1.146v1.738l-0.684,0.813h-2.903l-1.368-0.573l-4.18,2.182h-1.608l-1.665,1.59l0.388,0.259l0.111,1.979
        l2.441,2.071l0.222,4.271l-1.146,1.387l-1.738,0.351l-1.738,1.036l0.241,0.925l0.795,1.054V97.602z" style="fill: rgb(71, 43, 103);"></path>
    <path data-name="Corse" data-ann-count="0 annonce" data-link="annonces/offres/Corse" data-fillover="#70b002" data-fillout="#472b67" class="regions reg_5" d="
        M259.461,286.936h-0.924v1.275l1.164,0.814l1.961,1.146l0.129,0.924l-1.164,0.352l-1.85,0.352v0.795
        l0.684,0.703l0.131,2.311l2.533,0.814l0.924,0.223l0.814,1.275l-0.574,0.814l-0.924,0.332l-0.703,1.275l-0.684,0.814l0.332,2.07
        l1.738-0.111l0.463,0.352l1.627-0.813l0.463,0.461l-0.814,1.738l0.814,0.814l-1.387,1.035l-0.926,2.072l2.533,0.592l3.588,0.332
        l-1.498,1.738c0,0-0.703-0.271-1.018-0.129c-0.008,0.004-0.027,0.014-0.035,0.018c-0.004,0.002-0.016,0.018-0.02,0.02
        c-0.002,0.002-0.016,0.016-0.018,0.018c-0.004,0.002-0.018,0.016-0.02,0.02c-0.004,0.004-0.016,0.012-0.018,0.018
        c-0.002,0.004,0.002,0.016,0,0.02c-0.004,0.006-0.018,0.029-0.02,0.037c0,0.002,0.002,0.014,0,0.018
        c-0.002,0.008-0.018,0.029-0.018,0.037c-0.002,0.008,0,0.027,0,0.037c0,0.578-0.795,1.979-0.795,1.979l1.146,1.258l2.09,1.275
        l3.92,1.035l1.146,0.463l1.053,0.463l-0.701,1.275l1.848-0.111l0.352,0.814h1.85l0.463-2.201l-1.166-0.24l1.629-1.721l-0.574-0.592
        l0.111-1.035l2.09-1.146l0.111-1.275l-1.389-0.111l-0.924,0.795v-1.146l1.85-0.111l0.572-1.387l0.463-4.049l-0.352-1.738
        l-0.037-1.664l-0.074-3.422l2.775-3.92v-6.473l-1.146-2.201l-0.352-6.934l-0.814-1.275l-1.498-1.147l-0.24-4.291l0.703-1.96
        l-0.926-3.125l-0.572-2.533l-0.48-0.703l-1.035-0.573l-1.738,1.165l0.24,1.146l0.924,1.165l-1.035,0.795l0.463,0.925l-0.703,0.813
        v1.036l1.164,1.054v1.609l-0.703,1.498l-0.795,0.351l-0.924-1.275l-1.627,0.129l-0.352-0.24h-1.387l-1.258,1.165l-0.48,1.959
        l-2.996,0.574l-2.313,1.961l-0.461,1.275l-1.146-0.111l-0.592-0.703l-0.334,1.979l-0.813,0.334l-0.24,1.85l0.352,0.813
        l-1.277,0.926L259.461,286.936z"></path>
    <path data-name="Grand-Est" data-ann-count="0 annonce" data-link="annonces/offres/Grand-Est" data-fillover="#70b002" data-fillout="#472b67" class="regions reg_6" d="
        M186.79,83.066v0.352l-1.608,0.684l-0.111,1.387l-0.813,1.054l-0.462,2.312l-0.259,1.942l0.721,0.592h1.387
        l2.996,3.125l-0.352,3.125l2.09,1.609l1.165-0.813l1.849,2.201l0.222,2.089l1.276,1.72l0.573,1.276l4.623,0.241l2.312-1.165
        l0.685,1.276l0.813,0.111l0.592-1.276l3.81-0.111l1.498-0.814l0.241-1.498h3.347l0.462,0.259l1.387,0.777l2.071,2.2l2.663,3.588
        l-1.498,1.608l1.036,0.703l0.111,1.96l1.85-0.111l0.462,0.924l1.387,0.111l1.036-0.573l1.849,2.312l0.24,0.573l2.534-0.573
        l0.48-1.165l0.111,0.018v-1.165l1.609-0.703l1.85,0.703l1.738-0.703h1.035l0.352-2.312l0.573-0.684l-1.036-0.111l-0.111-1.387
        l1.609-0.352l0.111-0.925h1.627v-1.498l1.276-0.462l-0.352-0.925l0.352-0.222l0.795-0.481l-0.444-0.684l0.574-0.352l0.795,0.925
        l1.165-0.813l0.352-1.146l2.182-0.352l0.592,0.462l-0.111,1.276l1.498,1.146l0.925-0.111l1.035-0.814h2.423l1.738,1.96h0.573
        l0.924-0.573l0.131-0.684l0.924-0.462l1.035,0.684l1.037,1.165l3.643,1.923l0.055,0.037l0.463,0.925l1.85,0.111l2.09,1.627
        l0.332,0.795l-0.111,1.387l-0.572,1.054l0.221,1.387l1.627-0.24l0.352,1.276l0.574,2.459l1.369-0.222l-0.242,1.258l0.814,0.703
        l4.271-0.111l2.201-1.738l0.111-2.552l1.164-1.498l-1.516-1.738l-0.795-1.85l0.924-1.257v-2.903l0.574-1.387v-2.312l1.035-1.498
        l-1.146-1.609l-0.111-3.329l-0.02-0.37l3.016-5.899l-0.352-3.347l1.387-4.512l0.352-3.939l2.996-2.182V74.56l1.164-1.517h0.926
        l1.035-1.035l-0.223-1.96l1.035-2.774l1.609-0.351l-1.609-1.276l-2.885-0.333l-2.551-1.276l-1.738,1.036l-0.926-1.036h-1.256
        l-2.201,0.61l-0.24,0.074l-0.795-1.146l-2.313-1.387l-0.813-1.276l-2.775,0.241l-1.627,1.498l-3.92,0.111l-1.166-0.814
        c-0.078-0.142-0.646-1.145-1.146-1.424c-0.02-0.01-0.051-0.027-0.072-0.037c-0.018-0.007-0.043-0.014-0.057-0.018
        c-0.006-0.003-0.031-0.015-0.037-0.019c-0.002,0-0.016,0-0.018,0c-0.016-0.001-0.045,0-0.057,0c-0.541,0-1.59-0.608-1.719-0.685
        l-1.627,0.685l-0.111,1.387l-1.961,0.24l-1.164-2.2l-0.686-0.241v-1.609l-1.626-0.703l-0.111-2.774l-1.165-1.146l-2.422-1.165
        h-1.146l-0.352,0.241h-1.165l-1.609-1.387l-1.738,0.111l-1.387,1.165l-0.352,0.573h-1.96l-0.685-0.703h-0.295h-1.554l-2.089-2.312
        h-2.663l-1.387,1.276l-1.96,0.111l-0.684,0.703h-0.148h-0.555l-0.462-2.201l-0.924-0.924l-0.666-0.093l-0.832-0.129l-0.462-2.312
        l-0.925-0.703l-3.236-0.352l-0.573-1.498l-1.054-0.684l-3.698-0.462l-0.222-2.663l0.462-0.462V38.5l-1.849-1.165l0.351-1.276
        l0.462-1.146l-0.813-0.703l1.276-1.146v-2.089l-0.462-0.333h-1.738l-1.165,1.72l-1.036,1.054v1.036v1.387l-1.387,0.925
        l-2.533,0.813l-1.387,0.573l-1.627-1.276h-2.2l-0.314,2.053l1.036,1.96l-1.036,0.925l-0.111,1.738l0.573,0.924L200.9,45.86
        l-1.738,0.924v1.498l-2.201,0.462l-0.351,0.924l1.516,0.814l-0.462,1.608l-0.351,1.387l0.074,2.885l0.037,1.054l-0.813,0.222
        l-1.96-1.276l-1.387,0.592l0.24,1.146h-2.441l-2.182,1.627v3.106l1.609,1.054l0.462,1.036l-2.663,0.222l-0.333,1.054l1.036,0.684
        l-0.462,0.703l-1.035,0.462l0.222,0.795h1.498l0.592,0.813l-1.036,0.703l-0.925,2.422l-1.738,0.814l-0.592,1.257l-0.573,0.703
        l0.129,0.684l-0.924,0.592l-0.241,1.609l0.925,0.573l0.462,1.738l-0.573,1.036l0.351,0.813l1.72-0.111V83.066z" style="fill: rgb(71, 43, 103);"></path>
    <path data-name="Hauts-de-France" data-ann-count="0 annonce" data-link="annonces/offres/Hauts-de-France" data-fillover="#70b002" data-fillout="#472b67" class="regions reg_7" d="
        M142.816,23.928l-0.314,3.81l2.552,2.312v1.165l-3.125-1.849l-3.754,4.623l0.999,0.425l1.276-0.111
        l0.573,1.146l5.085,4.974l0.351,2.071l1.146,2.089l-0.388,0.481l-0.758,0.906l-0.462,1.146h0.924l-0.462,1.165l-0.462,2.312
        l0.684,1.146v1.979h1.165l-0.462,0.795l-0.813,1.516l-0.333,1.036l1.036,0.925l0.333,2.663l0.592,0.925l-0.813,0.222l-1.036-0.573
        l-0.185,1.369l0.074-0.093l0.444,1.036l0.703,1.146l3.125,0.241l2.201-0.241l1.498-1.146l1.849,1.146l0.925,0.703l1.387-0.351
        l1.257-0.573l2.441,1.276l2.534,1.498l0.813,0.813l1.387-0.925l1.146,0.685l0.703,0.573l1.036-0.111l0.703-0.925l1.609,0.925
        l1.979-0.814l1.146,0.352l1.146-0.925l0.703-0.351l0.222,0.166l1.054,0.758l0.351,2.552l3.107,2.996l1.036,0.351l0.591,1.387
        l1.942,0.407l0.24-0.296l0.592-1.257l1.738-0.814l0.925-2.422l1.036-0.703l-0.592-0.813h-1.498l-0.222-0.795l1.035-0.462
        l0.462-0.703l-1.036-0.684l0.333-1.054l2.663-0.222l-0.462-1.036l-1.609-1.054v-3.106l2.182-1.627h2.441l-0.24-1.146l1.387-0.592
        l1.96,1.276l0.813-0.222l-0.111-3.939l0.351-1.387l0.462-1.608l-1.516-0.814l0.351-0.924l2.201-0.462v-1.498l1.738-0.924
        l0.462-1.387l-0.573-0.924l0.111-1.738l1.036-0.925l-1.036-1.96l0.314-2.053h-2.349h-0.185l-0.111-1.146l2.312-1.387l-0.352-2.2
        l-2.2-0.573l0.573-0.592v-1.609l1.738-1.276l-0.462-0.925l-3.699-2.885l-6.472,0.352l-0.684,1.146h-0.813l0.111-4.05l-1.849-2.182
        l-1.387,0.222l-0.813-0.924l-2.312,1.035l-0.795-0.795l-1.627-0.24l-0.462-1.498l-0.111-4.623l-1.036-0.462l-0.129-0.703h-0.685
        l-0.24-1.387l-1.498,0.129l-2.885,0.924l-1.387,1.72h-1.388l-0.924-1.146l-0.352-1.276l-1.146-1.276h-1.627l-0.684-1.257V6.009
        l0.795-1.257l-0.462-1.738L164.118,0l-3.698,1.738l-5.77,0.925l-0.314,0.055l-6.398,1.221l-5.085,3.92v15.607L142.816,23.928z" style="fill: rgb(71, 43, 103);"></path>
    <path data-name="Ile-de-France" data-ann-count="2 annonces" data-link="annonces/offres/Ile-de-France" data-fillover="#70b002" data-fillout="#472b67" class="regions reg_8" d="
        M165.358,67.995l-0.758-0.758l-2.534-1.498l-2.441-1.276l-1.257,0.573l-1.387,0.351l-0.925-0.703
        l-1.849-1.146l-1.498,1.146l-2.201,0.241l-3.125-0.241l-0.703-1.146l-0.444-1.036l-0.925,1.147l-0.703,2.552l-0.776,1.313
        l-0.037,0.074l-3.236,0.925l-0.462,0.573l0.592,0.924v0.925l1.036,0.222l-0.592,0.591l0.056,0.518l0.074-0.056l1.146,1.146
        l0.352,1.387l0.925,0.924l-0.462,1.276v1.146l0.813,0.924l-0.813,1.387l0.813,1.979l1.609,1.146l0.24,1.276l1.387,0.222
        l0.333,2.552l1.054,1.276l1.868,0.352l0.555,0.111l0.222,1.498l0.24,0.351l0.241,3.107l3.698-0.333l1.498-1.387l1.276,1.036
        l3.106,0.222l0.444,0.666l0.721,1.073l1.387,0.703l0.111,1.96l-1.849,1.276l1.035,0.924l1.276-0.813l3.125,0.111l1.146-0.222
        l0.352-0.925l1.276,0.111l0.222,0.925l2.886-1.627l1.054-1.257l1.387-1.627l-0.925-1.036l0.813-1.738l2.071-1.036l4.512,0.222
        l1.036-0.795l0.092,0.093l0.259-1.942l0.462-2.312l0.813-1.054l0.111-1.387l1.608-0.684v-0.925l-1.72,0.111l-0.351-0.813
        l0.573-1.036l-0.462-1.738l-0.925-0.573l0.241-1.609l0.924-0.592l-0.129-0.684l0.333-0.407l-1.942-0.407l-0.591-1.387l-1.036-0.351
        l-3.107-2.996l-0.351-2.552l-1.276-0.924l-0.703,0.351l-1.146,0.925l-1.146-0.352l-1.979,0.814l-1.609-0.925l-0.703,0.925
        l-1.036,0.111l-0.703-0.573l-1.146-0.685l-1.387,0.925L165.358,67.995z"></path>
    <path data-name="Normandie" data-ann-count="0 annonce" data-link="annonces/offres/Normandie" data-fillover="#70b002" data-fillout="#472b67" class="regions reg_9" d="
        M114.929,55.458l0.536-0.092l-3.347-0.684l-2.312-1.738l0.573-3.236l2.774-4.161l4.734-2.552l5.788-2.071
        l8.784-2.201l4.956-3.81l0.758-0.924l0.999,0.425l1.276-0.111l0.573,1.146l5.085,4.974l0.351,2.071l1.146,2.089l-1.146,1.387
        l-0.462,1.146h0.924l-0.462,1.165l-0.462,2.312l0.684,1.146v1.979h1.165l-0.462,0.795l-0.813,1.516l-0.314,0.962l-0.019,0.074
        l1.036,0.925l0.333,2.663l0.592,0.925l-0.813,0.222l-1.036-0.573l-0.185,1.369l-0.851,1.054l-0.703,2.552l-0.813,1.387
        l-3.236,0.925l-0.462,0.573l0.592,0.924v0.925l1.036,0.222l-0.592,0.591l0.056,0.518l-0.629,0.518v1.85l-2.312,1.146v1.738
        l-0.684,0.813h-2.903l-1.368-0.573l-4.18,2.182h-1.608l-1.665,1.59l0.388,0.259l0.111,1.979l2.441,2.071l0.222,4.271l-1.146,1.387
        l-1.738,0.351l-1.738,1.036l0.241,0.925l0.795,1.054v2.737l-1.257-0.204l-1.627-2.422h-0.462l-0.111,1.146l-0.111-0.795h-2.422
        l-1.165-1.738l-1.96-0.703l-0.573-4.161l-0.924-1.257l-3.125,0.111l-3.125,2.885l-1.96-0.111l-0.592-2.09l-1.498-0.573
        l-0.462-2.533l-1.036-0.925l-1.146,0.111l-0.481,1.146l-1.72,0.703l-3.125-0.462l-3.125,1.849l-1.146-0.813L90.52,87.93
        l-1.276-0.924l-0.776-1.313l-0.037-0.074l-1.72-0.703l-1.165,0.925l-1.96-0.24v-0.222l-0.925-0.462h-1.387l-1.165-0.924
        l-1.258,1.498l-1.036,0.129l-0.924,1.258l-0.925-0.222l-1.979-1.738l-0.684-2.2l-0.352-1.461h2.182l1.257-0.573l-0.222-1.165
        l-2.552-0.573l-1.609-4.161l1.498-2.996V68.55l-1.387-2.774v-4.161l-0.573-0.814l-0.573-2.663l-2.663-2.996l-0.813-1.849
        l0.24-2.201l-0.351-0.24l-0.573-0.573l0.924-1.146v-2.552l-2.441-1.96l0.462-1.165l4.29,1.276l2.996,1.96l2.663-1.849l4.975,0.24
        l1.146,3.125h-1.276l-0.925,2.312l3.014,3.569l0.111,2.773l1.091-0.277l3.421-0.869l2.201,1.146l9.468,1.387l3.939,2.201
        l4.956-1.96l4.401-2.552L114.929,55.458z" style="fill: rgb(71, 43, 103);"></path>
    <path data-name="Nouvelle-Aquitaine" data-ann-count="0 annonce" data-link="annonces/offres/Nouvelle-Aquitaine" data-fillover="#70b002" data-fillout="#472b67" class="regions reg_10" d="
        M78.216,159.997l3.532-2.145l1.627-0.111l0.684,1.849l2.201-0.924l1.849,1.387l1.498-0.703
        l1.276-0.351l0.573-0.685l1.608-1.036l-1.146-1.165l-0.924,0.703l-0.111-0.925l0.813-1.516l-0.813-1.387l0.684-0.924l-0.352-3.236
        l-1.146-1.72l0.814-1.054l-1.85-2.071l0.685-1.498l-2.774-2.312v-1.387l-1.146-1.627l0.222-0.093l-0.012-0.003l2.201-0.943
        l3.587,0.813l1.609-1.054v-1.609l3.125-0.241l2.885-0.573l3.125-0.111l0.352,0.814l0.813,0.684l0.241-0.425l0.555-0.962
        l2.201-2.312h1.035l0.462,1.85l2.201,0.462v1.387l2.774,0.813v2.201l-0.111,1.387h3.458l3.014-0.703l-0.241-1.276l0.925-0.573
        l0.925,1.276l0.813,0.352l0.684,2.774l1.979,2.071l0.222,1.627l2.09,2.071v2.2l-0.462,1.387l2.201,1.738l1.146,1.146l1.849,0.24
        l0.703,2.422l1.257,0.685l-0.222,1.738l-0.925,0.166l0.333,0.074l2.903,0.222l1.036-1.035l1.849,1.849l0.314-0.37l1.997-2.293
        l1.036,0.703l1.387-0.129l0.462,0.241l2.089,0.111l0.685-1.849l5.788,0.703l2.2,0.573l3.81-0.462l1.387,1.96v1.387l0.795,1.036
        l0.813-1.036l0.925,1.627l1.276,0.462l1.276,2.996l0.222,3.587l0.924,1.146l0.462,2.201l-1.387,1.035l-0.333,1.627l-1.276,0.684
        l-2.201,1.276l0.222,1.035l2.404,2.404l0.259,0.259l0.24,1.627l-1.054,1.72v1.627l0.703,0.813l0.351,1.96l-0.573,2.071l0.573,1.387
        l-0.703,0.814h-1.146l-1.165-1.276l-1.036-0.573l-0.111,3.236l-2.089,1.276l-1.498,2.071l0.352,2.09l-0.462,0.924l-0.592,1.849
        h-0.925l-0.924,1.146l0.703,0.703l0.462,1.146l-1.498,1.054l-0.056-0.388l-1.793-0.481l-1.313,1.294l-0.647-1.146l-1.96,1.96
        l-1.313,0.167l-2.274-3.255l-2.94-1.313l-2.459,1.146l-0.351,0.056l0.074,0.111l-0.795,0.684v1.276l1.035,1.146l-1.035,1.849
        l-0.925,0.592l-0.129,1.146l-1.96,0.24l0.111,1.258l0.703,0.24l-1.627,2.312l-2.533,0.222l-0.111,1.738l-1.054,1.036l-0.111,0.296
        l-0.462,1.221l-2.312,0.111l0.924,3.458l1.165,2.552l-2.552,0.462l-1.738-1.036l-0.814,2.645l1.276,1.387l-0.573,2.201
        l-0.703,0.813l0.481,1.387l-2.201,0.462l-1.738,0.462l0.462,1.609l-1.146,0.352l-0.592,0.573l-1.738-1.72l-3.458,0.333
        l-0.924,1.627l-2.09,0.222l-1.96,0.351l-0.814-1.146l-1.849,1.849l-1.368-1.165l-0.444,0.924l-0.37,0.813l0.111,1.498l-1.276,0.352
        l-0.573-0.814l-0.573-1.738l-1.627,1.387l-1.146-0.462l-1.276,0.24l-1.146,1.387l1.369,2.312l-0.925,0.924l0.352,1.96l-1.146,1.498
        l-0.814,2.201l0.814,1.424l0.111,0.204l3.125,0.222l1.96,3.236l-1.276,1.165l0.925,1.387l1.387,2.071l-1.146,1.498l-1.849,4.161
        l-3.125,2.663l0.813,1.627l-0.703,0.462l-1.72-0.352l-0.481,3.81l-0.924,0.702l-0.185,2.386l-2.016,1.11l-1.054,0.572l-0.573-0.572
        l-1.146,0.24l-1.276,0.684l-1.165-1.387l-2.996-2.311l-0.241-2.423h-4.382l-2.663-1.627l-2.774-0.462l-0.924-1.257h-2.071
        l-0.813-1.165l0.111-1.498l-1.036,1.146l-0.352,1.738l-1.849-0.573l-1.036-1.165l0.111-1.036l1.627-0.814v-2.182l0.795-0.703
        l-0.333-1.387l-1.387-0.352l-2.201-0.924l-0.462,1.054l-1.627-0.129l-0.111-1.498l-2.071-0.111l-1.387-1.276v-1.276l1.498-0.222
        l2.071-0.814l2.663-3.236l0.481-0.851l1.72-2.959l0.684-2.774l0.813-3.938l2.663-10.171l2.053-10.984l0.019-0.111v-2.645
        l1.276-1.738l0.24-1.738l1.146-0.462l0.462,0.703l2.885-0.129l-0.684-0.924l-0.24-0.685l-2.312-2.089l-1.609,2.089l-0.814,2.663
        l0.111-1.979l1.054-7.619l1.498-9.819l0.573-9.708l1.849-2.774l1.165,0.111l-0.129,2.422l5.899,5.326l1.627,6.343l0.573,2.774
        l0.573-0.924l-0.222-3.347l-0.813-3.347l-0.167-0.74l-0.869-3.994l-3.698-3.699l-1.276-0.24l-0.111-1.146l-1.627-0.925
        l-2.423-1.979l-1.387,0.129l-0.24-2.552l-0.462-2.534l-0.222-2.2l-2.663-1.96l0.24-4.05l1.609,1.96l1.96,0.24l0.24,2.774
        l0.573,0.462l0.351,0.795l-1.035,1.387l0.222,0.925h1.627l-0.352-0.573l-0.111-1.609l1.387,0.111l0.573-2.552l-1.035-1.498
        l0.462-0.684l1.387,0.222l0.111-1.276l-1.036-0.462l-0.592-1.609l-1.609-0.352l-0.462-1.036l-2.423,0.111l-1.276-1.036
        l-1.627-1.036h-1.609l-1.276-1.849l1.96-0.703l1.387,0.924l0.241,1.165l2.312,0.222l0.924,1.035l1.738-0.222l0.222-1.165
        l1.849-1.498l-0.851-0.776L78.216,159.997z" style="fill: rgb(71, 43, 103);"></path>
    <path data-name="Occitanie" data-ann-count="5 annonces" data-link="annonces/offres/Occitanie" data-fillover="#70b002" data-fillout="#472b67" class="regions reg_11" d="
        M175.307,216.802l1.664-3.828l1.627-5.085l2.071,1.387l0.924-2.071l3.236-1.165l2.09,5.326l2.996-0.924
        l0.222-1.387h1.165l0.462,1.609l2.145-0.518l2.94,3.754l0.813,4.253l1.96,2.127l-0.333,2.441l0.573,0.351l1.886,1.128v3.273
        l1.313-0.666l2.774,1.813l1.313,0.48l0.314-2.293l1.646-0.314l0.481,1.793l1.646-0.167l0.314-1.793l4.087,2.293l1.96,3.254v2.626
        l3.44,3.421v1.479l-4.568,2.607l-0.832,6.213l-3.421-0.48l-0.98,2.607l0.814,1.147l-3.754,2.293l-1.036,2.404l-1.424-0.074
        l-2.645,0.129v-2.312l-1.775-0.129l-1.59-0.111l-3.92,2.774l-6.25,4.975l-1.036,1.276l-3.236,0.111l-0.462,1.036l-4.161,1.276
        l-0.074,0.629l-0.148,1.22l-1.165,1.146l-1.738,1.387l-1.96-1.849l-0.924,1.516l1.165,1.72l1.387-0.111l-0.129,3.81l0.092,3.309
        l0.259,10.098l1.627,0.703l0.925,1.275v1.85l-1.849-0.129l-1.517-1.609h-2.422l-1.738,0.572l-1.146,1.498l-3.477,0.814
        l-0.111,1.627l-0.685,0.332l-0.813-0.572h-0.813l-0.925,1.164l-3.236-2.773l-3.809-1.275l-2.422,0.463l-1.979,2.422l-1.387,0.24
        l-1.849-1.627l-0.111-2.072l-3.458-0.924l-1.738-1.627l-0.203-1.221l-0.37-2.127l-5.085-0.703l-1.738,0.703l-1.96-3.125
        l-4.974,0.24l-1.96-2.551h-1.516l-3.569-0.686l-0.628-0.352l-2.386-1.387l-1.609-0.24l-0.24,5.677l-4.697-0.314l-2.237-0.148
        l-1.036-0.463l-0.813,1.389l-2.201-0.592l-1.609-1.85l-3.81,1.627h-1.516l-1.849-1.498l-0.222-1.387l-2.312-1.738l-1.96-1.166
        l-0.296,0.167l0.185-2.386l0.924-0.702l0.481-3.81l1.72,0.352l0.703-0.462l-0.813-1.627l3.125-2.663l1.849-4.161l1.146-1.498
        l-1.387-2.071l-0.925-1.387l1.276-1.165l-1.96-3.236l-0.203-0.019l-2.922-0.203l-0.925-1.627l0.814-2.201l1.146-1.498l-0.352-1.96
        l0.925-0.924l-1.369-2.312l1.146-1.387l1.276-0.24l1.146,0.462l1.627-1.387l0.573,1.738l0.573,0.814l1.276-0.352l-0.111-1.498
        l0.814-1.738l1.368,1.165l1.849-1.849l0.814,1.146l1.96-0.351l2.09-0.222l0.924-1.627l3.458-0.333l1.738,1.72l0.592-0.573
        l0.277-0.092l0.869-0.259l-0.462-1.609l1.738-0.462l2.201-0.462l-0.481-1.387l0.703-0.813l0.573-2.201l-1.276-1.387l0.814-2.645
        l1.738,1.036l2.552-0.462l-0.185-0.407l-0.98-2.145l-0.924-3.458l2.312-0.111l0.573-1.517l1.054-1.036l0.111-1.738l2.533-0.222
        l1.627-2.312l-0.703-0.24l-0.111-1.258l1.96-0.24l0.129-1.146l0.925-0.592l1.035-1.849l-1.035-1.146v-1.276l0.795-0.684
        l-0.074-0.111l0.351-0.056l2.459-1.146l2.94,1.313l2.274,3.255l1.313-0.167l1.96-1.96l0.647,1.146l1.313-1.294l1.793,0.481
        l0.666,4.253l1.96,1.461l-1.479,3.439l1.479,0.647l-0.647,1.96l0.943,0.129l0.352,0.037l0.98-1.627h1.646l0.314,0.48h3.606
        l0.647-1.46l0.813-0.333l0.333-2.607h0.813v-2.774l3.273-2.792l0.333,0.5l0.314,2.126l2.294-0.333l0.499,3.273h1.128l0.333,3.273
        L175.307,216.802z" style="fill: rgb(71, 43, 103);"></path>
    <path data-name="Pays de la Loire" data-ann-count="1 annonce" data-link="annonces/offres/Pays-de-la-Loire" data-fillover="#70b002" data-fillout="#472b67" class="regions reg_12" d="
        M88.224,136.094l3.602,0.838l1.587-1.053v-1.623l3.067-0.232l2.906-0.553l3.158-0.125l0.338,0.785
        l0.82,0.713l0.803-1.408l2.247-2.283l0.874,0.018l1.262-4.595l1.85-2.201l-0.13-2.534l1.165-1.516v-0.684l-0.573-0.703l0.37-0.758
        l0.776-1.553l2.312,1.627h1.276l-0.703-2.312l1.406,0.925l0.795-1.165l3.347-0.925l-0.573-1.387l0.813-1.036l1.738-0.684
        l1.609-2.09v-2.2h1.165l0.462-1.609l0.111-2.423l-1.146-1.054l0.925-1.609l1.368-1.738l-1.609-1.146l-1.498-0.241l-1.627-2.422
        h-0.462l-0.111,1.146l-0.111-0.795h-2.422l-1.165-1.738l-1.96-0.703l-0.573-4.161l-0.925-1.258l-3.125,0.111l-3.125,2.885
        l-1.627-0.092l-0.333-0.019l-0.592-2.089l-1.498-0.573l-0.462-2.534l-1.036-0.924l-1.146,0.111l-0.481,1.146l-1.72,0.703
        l-3.125-0.462l-3.125,1.849l-1.147-0.813l-1.738,1.165l-1.276-0.925l-0.813-1.387l-1.72-0.703l-1.165,0.924l-1.96-0.24
        l-0.111,3.014l0.573,0.462l0.006,2.062l-1.171,1.415v1.849l0.352,1.146v3.347l0.813,0.813l0.056,2.968l-1.997-0.234l-0.814,0.444
        l-1.516,3.81l-0.555,1.997l-0.444,0.924l-2.367-0.555l-1.017-1.439l-1.745-0.194l-0.108,1.271l-2.499,0.323l-1.185,1.12
        l-0.493,1.312l-7.157,0.352l-3.014,1.609l-0.111,3.236l-3.236,1.276l-2.2,1.146h-1.849l-0.685-0.795l-1.036,1.036l-0.486,0.091
        l0.579,0.556l-2.201,1.96l0.462,0.462l0.462,0.924l-1.165,1.627l1.276,0.684l2.201,0.462l0.222-0.924l1.276,1.627h2.09l1.498-1.627
        h1.96l-2.071,1.035l0.111,1.165l0.462,1.036l-1.276,1.276h-1.387l0.24,1.738l2.533-0.462l3.015,2.773l-0.148,0.185v0.015
        l-3.44,4.438l-0.111,2.774l3.569,3.458l-0.111,1.036h1.036l2.201,6.602l2.312,1.146l2.312,2.312h2.663l1.036,2.312h2.552
        l1.146,1.738l2.552,1.276l0.111-1.627l0.658,0.442l3.531-2.123l1.641-0.125l0.696,1.836l2.193-0.909l1.837,1.373l1.516-0.696
        l1.302-0.356l0.535-0.677l1.64-1.07l-1.159-1.105l-0.927,0.696l-0.142-0.928l0.838-1.533l-0.802-1.409l0.66-0.874l-0.357-3.317
        l-1.105-1.677l0.803-1.069l-1.854-2.034l0.695-1.515l-2.782-2.319l-0.036-1.391l-1.105-1.623L88.224,136.094z" style="fill: rgb(71, 43, 103);"></path>
    <path data-name="Provence-Alpes-Côte-d'Azur" data-ann-count="18 annonces" data-link="annonces/offres/Provence-Alpes-Cote-d-Azur" data-fillover="#70b002" data-fillout="#472b67" class="regions reg_13" d="
        M242.175,265.399l0.314,0.425l2.071,0.925l0.573,2.312l1.276,0.24l1.165-0.813
        l2.071-1.276l3.587,0.351l-0.11,0.925l-1.165,0.573l2.773,0.129l-0.684-0.703l-0.241-1.498l1.499-1.035l1.738,0.573l0.703,0.222
        l0.572,0.703l0.814-0.573l0.221-1.516l0.926-0.795h2.422l0.703-1.054l1.609,0.462l1.848-0.795v-3.014l-2.422,0.111l1.85-1.146
        l0.924-1.276l0.24-1.85l3.348-0.462l1.867-2.09l0.094-0.111l0.109-2.645l2.313,0.462l0.814-1.054l1.164,0.24l0.111-3.587
        l2.662-0.222l2.313-2.09h2.07l0.111-1.276l2.09-1.257l-1.166-2.663l1.738-1.498l-0.352-1.738l2.553-0.814l0.684-2.533l-0.332-1.738
        l-0.592-1.036l-0.463-1.516l-1.719,0.129l-5.438,1.96h-1.738l-2.996-2.422l-3.014-0.814h-1.738v-2.089l-2.422-1.498v-0.074v-2.238
        l1.627-0.222l-0.924-0.814l-1.166-0.351l-0.572-1.498l0.461-1.036l2.072-2.2l-0.334-1.627l0.297-0.314l1.09-1.184l1.258,0.111
        v-1.035l-1.609-0.814l-0.35-3.347l-1.277-0.462l-1.607,0.24l-3.016-1.517l-0.461-3.458l-1.721-0.573l-0.592-1.165l-0.758-1.664
        l-2.219-0.111l-1.037,0.462l-0.24,1.738l-2.07,0.241l-0.352-1.627l-0.684-0.684l-2.09,0.222l-0.813,0.703l-0.462,2.423l0.351,0.573
        l2.423,0.24l0.461,1.498l0.926,0.462v2.534l-2.201-0.111L253.011,208l-2.645-0.462l-1.498,1.276l-1.054-0.462l-1.498,1.165
        l0.573,1.036l-0.925,0.924h-2.884v1.387l0.925,0.462l-0.352,0.813l-1.96,0.795l-2.423,0.24l-0.703,2.201l-0.111,1.387l1.276,1.036
        l-1.276,1.498l-1.609-0.813L235,220.371l-0.24,1.036l1.165,0.813l-1.405,0.925l0.481,1.96l3.92,1.054l0.703,1.498l1.146,0.222
        l-0.388,3.606l-0.074,0.684l-0.684-0.813l-0.925-0.813l-0.592,1.738l-1.035,0.925l-0.444-0.037l-1.054-0.074l-1.738-1.276
        l-0.462-1.498l-3.236-0.24l-2.423-0.222l-0.24-1.387l0.813-1.738l-1.498,1.276l-2.312-0.24l-0.462-0.814l1.609-2.182l-1.609-1.516
        l-1.627,0.129l-1.257,1.96l0.333,2.071l1.96,0.24l-0.333,0.925l-1.516,0.111l-1.72,1.738l-0.462-0.573l0.333-2.312l-0.685-0.813
        l-3.125,0.462l-0.61,1.239l0.333,0.185l1.96,3.254v2.626l3.44,3.421v1.479l-1.332,0.758l-3.236,1.849l-0.832,6.213l-3.421-0.48
        l-0.98,2.607l0.814,1.147l-3.754,2.293l-1.036,2.404l3.662,0.167l4.863,0.351l0.924,0.925h-1.738l-1.146,1.96l4.956,1.035
        l3.939-0.684l-2.09-1.979l1.387-1.146l2.201,0.924l1.035,2.201l6.602,0.111l1.72-0.703l0.351,1.054l-1.849,1.609l2.552,0.111
        l-0.462,1.165l-0.703,0.813h5.658l2.774,0.925L242.175,265.399z" style="fill: rgb(71, 43, 103);"></path>
    <g>
            <path data-name="Guadeloupe" data-ann-count="0 annonce" data-link="annonces/offres/Guadeloupe" data-fillover="#70b002" data-fillout="#472b67" class="regions reg_14" d="
            M26.469,258.606c1.221,0.402,3.253,0.803,4.474,1.206c0.41,0.798,2.04,2.407,3.261,2.407
            c-4.884,0-9.775,2.809-11.806,2.809c-0.812,0-3.254-2.011-3.663-2.407c-0.819,0.798-0.819,0.396-2.441,0.798v2.412
            c0.811,2.006,1.623,4.411,1.623,5.216c0,2.811-4.065,5.216-5.695,6.02c-1.221-1.206-3.261-3.211-3.663-4.812
            c-0.818-1.609,0-4.016-0.409-5.625c-0.409-2.004-1.221-4.008-1.221-4.813c0-1.206,0.812-4.016,2.441-4.016
            c0.813,0,3.261,1.206,4.884,2.01c0.409,0.396,0.819,1.202,0.409,2.004c0.41,0,0.813,0.403,1.631,0.403
            c1.221,0,4.883-4.418,4.883-5.223c0-1.199-1.63-2.003-1.63-3.211c0-1.199,1.221-3.21,2.442-3.21
            C26.06,250.575,23.617,256.997,26.469,258.606z" style="fill: rgb(71, 43, 103);"></path>
    <path data-name="Guadeloupe" data-ann-count="0 annonce" data-link="annonces/offres/Guadeloupe" data-fillover="#70b002" data-fillout="#472b67" class="regions reg_14" d="
            M34.203,278.174l-2.42,2.422h-2.421c-0.812-0.803-0.812-0.803-0.812-2.422c0-2.418,0.812-2.418,1.616-3.223
            C31.782,274.951,33.398,276.565,34.203,278.174z" style="fill: rgb(71, 43, 103);"></path>
        </g>
    <path data-name="Guyane" data-ann-count="0 annonce" data-link="annonces/offres/Guyane" data-fillover="#70b002" data-fillout="#472b67" class="regions reg_15" d="
        M13.497,162.459c2.039,0.804,4.481,1.607,6.922,2.815c0.812,0.395,8.554,6.422,8.554,8.024
        c0,0.805-0.818,1.206-0.409,2.002c0.812-0.796,1.221-2.405,1.221-3.21c1.221,1.206,2.442,3.21,2.442,4.418
        c0,0.804-4.884,6.422-6.514,10.035c-1.63,2.407-2.032,5.619-3.663,8.425c-0.409,0.403-1.63,2.006-2.441,2.006
        c-1.221,0-2.04-0.396-2.851-0.798c-0.41-0.402-2.04-0.402-3.26-0.402c-0.812,0-2.033-0.402-2.845,0c-1.221,0-1.63,2.003-2.85,2.003
        c-0.818,0-2.04-1.199-3.261-1.601c0.409-2.412,3.261-4.82,2.852-7.226c0.409-2.003,2.04-4.812,2.04-6.018
        c0-0.805-3.261-3.212-4.073-4.821c-1.221-2.407-1.221-6.415-1.221-7.624c0-1.607,4.065-8.828,6.513-8.828
        C11.875,161.661,12.686,162.063,13.497,162.459z" style="fill: rgb(71, 43, 103);"></path>
    <path data-name="La Réunion" data-ann-count="5 annonces" data-link="annonces/offres/La-Reunion" data-fillover="#70b002" data-fillout="#472b67" class="regions reg_16" d="
        M24.592,127.942c0.409,0,0,1.199,0.409,2.005c0.812,2.003,6.916,6.824,6.916,8.425
        c0,0.805-1.623,2.413-1.623,3.614c-0.409,0.804,0.402,1.609,0.402,2.809c0,0.402,0,2.414-1.623,2.81
        c-2.449,0.805-6.113,1.608-7.333,1.608c-2.032,0-12.208-5.215-12.618-5.617c0-0.402-1.631-1.207-2.04-2.01
        c-0.402-1.201-0.402-2.81-0.812-3.606c-0.811-1.609-2.441-3.614-2.441-4.419c0-2.809,1.221-1.608,2.441-4.016v-1.602v-0.804
        c4.482-1.608,3.663-3.211,7.326-3.211C14.824,123.926,23.781,125.528,24.592,127.942z" style="fill: rgb(71, 43, 103);"></path>
    <path data-name="Martinique" data-ann-count="0 annonce" data-link="annonces/offres/Martinique" data-fillover="#70b002" data-fillout="#472b67" class="regions reg_17" d="
        M16.885,212.819c1.63,1.201,2.851,3.205,4.072,4.411c0.409,0.403,1.221,0,1.221,0
        s-0.402-0.403-0.402,0.805c0,0.804,1.622,1.199,2.441,1.603l-2.039,2.009v1.201c0,0-0.402,0.402,0.818,0.402
        c0.812,0,1.623-0.402,1.623-0.803c0,0.401,0,1.206-0.402,2.01c0.402,0.402,1.222,0.803,1.624,0.803
        c1.221,2.809,3.669,7.22,3.669,8.427c0,0.805-1.221,2.81-2.449,4.411h-1.221c0-0.396-0.402,0-0.402-1.2
        c0-0.805,0.812-1.206,1.221-2.012c-1.221,0-2.852-0.795-4.072-0.795c-0.811,0-2.442-1.208-3.261-1.208
        c-1.221,0-2.844,0.806-5.285,1.61c0-0.804-0.41-2.012-0.41-2.817c0-1.199,0.813-2.002,2.033-2.809
        c0.818,0.403,1.63,1.207,2.441,1.607c0.409-0.401,1.221-0.803,1.631-1.204c-1.222-1.201-2.033-2.409-2.442-3.615
        c-7.734-0.796-8.546-4.01-8.546-8.426c0-1.208-2.449-2.81-2.449-4.813c0-1.608,0.819-3.21,3.261-3.21
        C10.372,209.206,14.442,211.209,16.885,212.819z" style="fill: rgb(71, 43, 103);"></path>
    <path data-name="Mayotte" data-ann-count="0 annonce" data-link="annonces/offres/Mayotte" data-fillover="#70b002" data-fillout="#472b67" class="regions reg_18" d="
        M6.865,286.479c0.008,0.023-0.028,0.033-0.034,0.047c-0.04-0.01-0.035,0.035-0.073,0.025
        c-0.028,0.016-0.031,0.047-0.044,0.076c-0.019,0-0.001,0.045-0.035,0.049c0.009,0.033-0.005,0.064-0.022,0.082
        c0.015,0.043-0.029,0.055-0.024,0.09c-0.021,0.021-0.036,0.039-0.071,0.041c-0.011,0.029-0.053,0.041-0.045,0.08
        c-0.033,0.02-0.052,0.059-0.088,0.082c-0.046-0.023-0.063,0.043-0.111,0.018c-0.038-0.008-0.07,0.006-0.095,0.025
        c-0.035-0.012-0.028,0.021-0.051,0.029c-0.007,0.027-0.034,0.018-0.025,0.055c-0.019,0.016-0.038,0.031-0.016,0.057
        c0.021-0.002,0.019,0.029,0.041,0.039c-0.005,0.035-0.008,0.078,0.02,0.094c0.011,0.031-0.012,0.057-0.021,0.074
        c0.008,0.027-0.054,0.045-0.003,0.053c0.046,0.01,0.107-0.018,0.143,0.014c0.046,0.025,0.125,0.004,0.184,0.012
        c-0.007-0.023,0.03-0.031,0.035-0.047c0.04,0.01,0.034-0.037,0.071-0.023c0.041-0.012,0.073,0.006,0.103,0.023
        c0.035-0.008,0.023,0.035,0.061,0.021c0.024,0.016,0.035,0.063,0.073,0.047c0.004,0.02,0.024,0.027,0.027,0.033
        c-0.001,0.031,0.062,0,0.052,0.037c0.029-0.008,0.045,0.016,0.056,0.025c0.041,0,0.061,0.033,0.061,0.07
        c0.018,0.004,0.027,0.023,0.044,0.037c0.038,0.029,0.013,0.094,0.019,0.139c0.01,0.047,0.002,0.09-0.042,0.111
        c-0.02,0.02-0.029,0.039-0.036,0.07c-0.018,0.008-0.021,0.021-0.042,0.033c-0.002,0.01-0.023,0.021-0.033,0.037
        c-0.003,0.016-0.041,0.021-0.032,0.045c-0.039,0.004-0.042,0.059-0.092,0.055c-0.018,0.014-0.047,0.061-0.001,0.068
        c0.007,0.041-0.009,0.109,0.008,0.137c0.049,0,0.106,0.016,0.132-0.035c0.034-0.012,0.009-0.055,0.047-0.066
        c0-0.047-0.016-0.104,0.031-0.131c0.021-0.031,0.073-0.037,0.108-0.016c0.024,0.025,0.05,0.072,0.099,0.061
        c0.038-0.006,0.083-0.006,0.102,0.021c0.053,0.018,0.08-0.039,0.1-0.059c0.015-0.012,0.027-0.023,0.035-0.033
        c0.039-0.023,0.041-0.063,0.036-0.109c-0.011-0.031,0.03-0.039,0.034-0.057c0.035-0.012-0.011-0.078,0.035-0.076
        c0.011-0.037,0.059-0.041,0.05-0.088c0.026-0.01,0.051-0.039,0.048-0.07c0.024,0,0.05-0.008,0.053-0.027
        c0.035,0.002,0.079,0.012,0.095-0.021c0.035,0.008,0.035-0.023,0.055-0.031c0.003-0.045,0.073,0.01,0.075-0.039
        c0.046,0.006,0.078-0.014,0.101-0.053c0.048,0.025,0.078-0.031,0.104-0.055c0.037-0.018,0.012-0.059,0.05-0.07
        c-0.014-0.037,0.025-0.125-0.044-0.109c-0.031,0.002-0.073,0.012-0.084-0.021c-0.034-0.002-0.08,0.012-0.095-0.023
        c-0.046,0-0.099,0.014-0.125-0.029c0.002-0.045-0.027-0.053-0.052-0.078c0-0.014-0.026-0.014-0.027-0.035
        c-0.023-0.008-0.045-0.039-0.045-0.066c-0.038-0.008,0-0.068-0.055-0.055c-0.022-0.008-0.012-0.029-0.041-0.02
        c-0.03-0.018-0.043-0.057-0.082-0.053c-0.013-0.043-0.076,0-0.084-0.043c-0.035-0.012,0.014-0.076-0.034-0.076
        c0.004-0.031-0.008-0.064-0.021-0.084c0.001-0.063-0.094,0.002-0.104-0.055c-0.019,0-0.014-0.025-0.038-0.027
        c0-0.021-0.026-0.02-0.033-0.043c-0.036,0.014-0.046-0.049-0.084-0.02c-0.018-0.004-0.032-0.031-0.043-0.035
        c-0.003-0.029-0.063,0-0.052-0.039c-0.03,0.002-0.067,0.006-0.079-0.021c-0.052,0.014-0.045-0.066-0.099-0.049
        C6.883,286.49,6.894,286.465,6.865,286.479z M8.582,289.457c0.005,0.051-0.075,0.012-0.108,0.023
        c-0.018,0.021-0.042,0.037-0.032,0.088c0.003,0.037,0.023,0.059,0.066,0.055c0.038,0.004,0.1-0.016,0.104,0.023
        c0.014,0.023,0.061,0.018,0.07,0.047c0.04,0.002,0.058,0.023,0.086,0.037c0.016,0.025,0.053,0.025,0.046,0.07
        c0.014,0.025,0.053,0.025,0.047,0.07c0.017,0.02,0.041,0.033,0.053,0.059c0.042,0.002,0.062-0.02,0.063-0.059
        c0.009-0.053-0.015-0.068-0.037-0.082c-0.02-0.021-0.043-0.039-0.033-0.09c-0.034-0.008-0.064-0.016-0.07-0.051
        c0.024-0.066-0.049-0.037-0.054-0.074c-0.044,0.004,0.011-0.096-0.03-0.094c-0.058,0.014-0.071-0.018-0.108-0.023
        C8.625,289.457,8.604,289.457,8.582,289.457z M14.082,289.625c-0.005,0.043-0.087,0.012-0.093,0.055
        c-0.018,0.031-0.053,0.047-0.07,0.078c-0.032,0.018-0.057,0.045-0.046,0.102c-0.012,0.063,0.025,0.076,0.032,0.119
        c0.067,0,0.133,0,0.201,0c0.005-0.045,0.048-0.053,0.104-0.047c0.015,0.035,0.078,0.02,0.126,0.023
        c0.04,0.008,0.057,0.037,0.073,0.07c0.055-0.018,0.097,0.021,0.115,0.016c0.034-0.018,0.022-0.08,0.022-0.127
        c0.018-0.068-0.028-0.07-0.022-0.127c-0.001-0.047-0.089-0.012-0.129-0.021c-0.038-0.012-0.126,0.025-0.127-0.023
        c-0.038-0.012-0.053-0.045-0.078-0.072c-0.032-0.018-0.037-0.059-0.102-0.045H14.082L14.082,289.625z M9.603,289.787
        c0.017,0.055-0.079-0.004-0.07,0.043c-0.025,0.014-0.074,0.002-0.108,0.006c-0.048-0.014-0.054,0.018-0.078,0.029
        c0,0.037-0.064,0.008-0.093,0.018c0.004,0.041-0.056,0.014-0.058,0.047c-0.018,0.004-0.026,0.094,0.018,0.072
        c0.043-0.008-0.013,0.088,0.041,0.07c0.028,0.008,0.094-0.02,0.092,0.02c0.027,0.016,0.075,0.004,0.081-0.02
        c0.049,0.014,0.057-0.018,0.081-0.029c0-0.035,0.067-0.01,0.096-0.018c0.041,0.004,0.01-0.064,0.019-0.092
        c0.043,0.006,0.001-0.074,0.06-0.051c0.039-0.029-0.021-0.045-0.013-0.078C9.681,289.771,9.622,289.795,9.603,289.787z
         M15.311,290.973c0.012,0.029-0.021,0.016-0.022,0.031c0,0.029,0,0.057,0,0.086c0.022,0,0.046,0,0.069,0
        c-0.008,0.027,0.013,0.027,0.033,0.025c0.043,0,0.087,0,0.129,0c-0.013-0.031,0.021-0.018,0.022-0.033c0-0.029,0-0.057,0-0.088
        c-0.03,0-0.062,0-0.093,0c0.008-0.025-0.012-0.025-0.032-0.023C15.382,290.973,15.347,290.973,15.311,290.973z M27.117,296.086
        c0.013,0.029-0.031,0.018-0.024,0.043c-0.043-0.002-0.001,0.059-0.044,0.055c0.007,0.035-0.022,0.107,0.035,0.092
        c0.026-0.004,0.062,0.012,0.062-0.021c0.026,0,0.015-0.039,0.049-0.025c0.037,0.006-0.003-0.059,0.041-0.051
        c-0.005-0.029,0.015-0.07-0.021-0.07C27.21,296.066,27.145,296.092,27.117,296.086z M25.4,296.84
        c0.005,0.023-0.054,0.053-0.01,0.072c0.033-0.02,0.033,0.027,0.056,0.029c0,0.039,0.053-0.004,0.053,0.039
        c0.025-0.002,0.015,0.045,0.052,0.025c0.032,0,0.056,0.006,0.064-0.023c0.06,0.018,0.042-0.068,0.032-0.094
        c-0.039-0.008-0.111,0.012-0.128-0.012c-0.022-0.018-0.032-0.049-0.072-0.037C25.43,296.84,25.415,296.84,25.4,296.84z
         M28.393,296.912c-0.012,0.061-0.116-0.016-0.102,0.072c-0.08,0.063-0.105,0.164-0.159,0.229c0.01,0.086-0.073,0.135-0.088,0.211
        c-0.089,0.016-0.116,0.111-0.134,0.182c-0.053,0.076-0.113,0.164-0.202,0.197c-0.056,0.033-0.14,0.041-0.132,0.139
        c-0.073,0.076-0.102,0.191-0.203,0.236c-0.059,0.031-0.116,0.07-0.163,0.096c-0.026,0.07-0.127,0.078-0.141,0.166
        c-0.068,0.021-0.075,0.111-0.153,0.125c-0.007,0.055-0.091,0.096-0.122,0.084c-0.095,0.051-0.17-0.115-0.1-0.186
        c0.06-0.037-0.041-0.053-0.028-0.105c-0.056,0.031-0.146,0.012-0.108,0.113c0.02,0.104-0.079,0.146-0.085,0.242
        c-0.028,0.02-0.078,0.031-0.056,0.092c-0.032,0.078-0.128,0.133-0.187,0.047c-0.04-0.039-0.146,0-0.145-0.096
        c-0.111-0.014-0.188,0.027-0.271,0.086c0.018,0.088-0.111,0.164-0.016,0.24c0.098,0.039,0.213,0.035,0.297,0.094
        c0.081,0.014,0.16,0.018,0.207,0.094c0.074,0.049-0.046,0.123,0.023,0.176c0.013,0.063,0.107,0.023,0.11,0.102
        c0.037,0,0.114-0.082,0.165-0.006c0.059,0.041,0.165-0.006,0.211,0.068c0.084,0,0.116,0.105,0.185,0.127
        c0.065,0.086,0.146,0.131,0.232,0.164c0.063,0.074,0.058,0.158,0.136,0.215c0.049,0.055,0.008,0.166,0.047,0.24
        c-0.039,0.143,0.122,0.141,0.218,0.201c0.088,0.018,0.07,0.146,0.132,0.211c0.04,0.047,0.056,0.098,0.02,0.156
        c0.055,0.018-0.006,0.104,0.057,0.125c0.063,0.09-0.006,0.182,0.013,0.303c-0.035,0.123,0.073,0.154,0.092,0.264
        c0.093-0.01,0.151,0.064,0.231,0.027c0.075-0.02,0.058,0.092,0.135,0.078c0.033,0.041,0.024,0.096,0.091,0.113
        c-0.007,0.09,0.104,0.115,0.079,0.207c0.072,0.02,0.153-0.047,0.204-0.064c0.01-0.1-0.056-0.174-0.109-0.244
        c-0.041-0.074-0.06-0.166-0.106-0.219c-0.044-0.055-0.042-0.133-0.026-0.174c0.046-0.066,0.035-0.172,0.035-0.262
        c-0.055-0.004,0.035-0.051-0.025-0.064c0.042-0.066,0.016-0.152,0.049-0.213c0.003-0.102,0.114-0.131,0.129-0.223
        c0.027-0.072,0.144-0.158,0.226-0.09c0.053-0.064,0.187,0.01,0.25-0.053c0.082-0.014,0.142-0.086,0.203-0.148
        c0.054-0.078,0.147-0.143,0.144-0.25c-0.025-0.047-0.059-0.057-0.022-0.102c-0.003-0.094-0.078-0.148-0.101-0.244
        c-0.1-0.031-0.12-0.203-0.052-0.268c0.077-0.063,0.117-0.15,0.129-0.242c0.024-0.051,0.109-0.061,0.146-0.047
        c0.016,0.061,0.121,0.16,0.118,0.033c0.046-0.066-0.037-0.094-0.009-0.17c-0.062,0.016-0.06-0.084-0.116-0.107
        c0.004-0.121-0.002-0.232-0.047-0.314c0.008-0.1-0.122-0.115-0.184-0.135c-0.102,0.006-0.165-0.076-0.141-0.184
        c0.04-0.021,0.006-0.107,0.043-0.125c-0.033-0.035,0.044-0.131-0.021-0.17c0.009-0.09-0.043-0.129-0.052-0.213
        c-0.056,0.004-0.017-0.055-0.083-0.061c-0.009-0.072-0.104-0.063-0.112-0.137c-0.078-0.061-0.107-0.148-0.187-0.217
        c-0.033-0.012-0.05-0.021-0.062-0.063c-0.119-0.025-0.047-0.178-0.128-0.246C28.547,296.943,28.485,296.9,28.393,296.912z
         M25.608,297.832c0.013,0.057-0.022,0.08-0.034,0.123c-0.015,0.021-0.107,0.025-0.083,0.094c-0.01,0.063,0.003,0.117,0.067,0.123
        c0.037,0.051,0.075-0.029,0.095-0.045c0.003-0.047,0.053-0.084,0.095-0.088c0.043-0.039,0.022-0.121-0.027-0.158
        C25.72,297.828,25.66,297.828,25.608,297.832z M24.213,300.811c-0.029,0.047-0.104,0.047-0.139,0.086
        c-0.058,0.016-0.089,0.055-0.116,0.102c-0.054,0.023-0.081,0.074-0.092,0.139c0.019,0.061,0.094,0.064,0.07,0.168
        c0.044,0.021,0.073,0.133,0,0.143c-0.011,0.064-0.067,0.084-0.093,0.131c-0.054,0.105,0.008,0.1,0.093,0.121
        c0.065,0.008,0.061,0.088,0.092,0.131c-0.052,0.047-0.005,0.129,0.054,0.137c0.103,0.018,0.147-0.02,0.179-0.07
        c0.053-0.08,0.094,0.047,0.146,0.047c0.005-0.025-0.014-0.109,0.04-0.143c0.071-0.004,0.105-0.043,0.139-0.084
        c0.036-0.039,0.102-0.045,0.116-0.104c0.053-0.051,0.041-0.105,0.023-0.178c-0.035-0.047,0.002-0.166-0.091-0.152
        c-0.047-0.029-0.088-0.064-0.133-0.096c-0.013-0.066-0.037-0.121-0.07-0.166c-0.034-0.039-0.073-0.074-0.078-0.141
        C24.325,300.832,24.276,300.822,24.213,300.811z M25.672,302.678c0.011,0.029-0.044,0.023-0.021,0.061
        c-0.049,0.016-0.002,0.047,0.011,0.055c0.024,0.014-0.006,0.055,0.029,0.055c0.016,0.041,0.053,0.047,0.094,0.047
        c0.019,0.057,0.027-0.031,0.065-0.002c0.006-0.027,0.059-0.035,0.008-0.057c-0.006-0.037-0.075,0.008-0.081-0.043
        c-0.013,0.004-0.012-0.025-0.035-0.025c-0.006-0.021-0.047-0.037-0.002-0.045c0.01-0.029-0.029-0.016-0.025-0.043
        C25.702,302.674,25.687,302.68,25.672,302.678z M24.118,303.506c-0.001,0.029-0.027,0.039-0.046,0.053
        c-0.005,0.027-0.034,0.031-0.046,0.053c0.009,0.027-0.022,0.092,0.023,0.084c0.005,0.027,0.019,0.045,0.053,0.047
        c0.051-0.014,0.03,0.041,0.081,0.023c0.032,0.002,0.044,0.021,0.052,0.049c0.026,0.006,0.036,0.029,0.07,0.027
        c-0.002,0.039,0.063,0.01,0.089,0.018c0.033-0.002,0.036-0.031,0.073-0.029c-0.016-0.051,0.038-0.031,0.023-0.082
        c-0.025-0.01-0.024-0.043-0.071-0.029c-0.046,0.012-0.046-0.021-0.069-0.037c-0.018-0.016-0.022-0.043-0.065-0.035
        c-0.012-0.02-0.021-0.043-0.051-0.047c-0.002-0.031-0.027-0.039-0.046-0.053c0.018-0.055-0.029-0.041-0.065-0.041H24.118
        L24.118,303.506z M24.906,303.717c-0.022,0.012-0.038,0.02-0.028,0.049c0.014,0.023-0.016,0.09,0.043,0.07
        c0.041,0,0.083,0,0.124,0c-0.004,0.039,0.056,0.016,0.059,0.049c0.008,0.031,0.055,0.023,0.092,0.023
        c0.007-0.033,0.055-0.023,0.093-0.023c0.041-0.004,0.081-0.004,0.091,0.023c0.048,0.01,0.063-0.018,0.08-0.037
        c-0.008-0.031,0.017-0.096-0.013-0.105c-0.024-0.014-0.023-0.053-0.065-0.049c-0.046-0.006-0.038,0.043-0.095,0.023
        c-0.056,0.02-0.051-0.025-0.091-0.023C25.118,303.713,24.964,303.691,24.906,303.717z M23.836,308.514
        c-0.03,0.021-0.01,0.09-0.047,0.104c0,0.053,0,0.105,0,0.156c-0.043,0.008-0.013,0.088-0.056,0.096
        c-0.04,0.021-0.011,0.1,0.052,0.07c0.009,0.039,0.076,0.02,0.072,0.068c0.034,0.02,0.064,0.037,0.07,0.084
        c-0.008,0.057-0.006,0.104,0.066,0.086c0.034-0.016,0.061-0.035,0.12-0.025c0.007-0.045-0.019-0.117,0.022-0.127
        c0.028-0.021,0.041-0.059,0.064-0.086c0.021-0.041,0.001-0.096-0.017-0.119c-0.009-0.043,0.021-0.125-0.017-0.141
        c-0.008-0.041-0.005-0.094-0.052-0.096c-0.013-0.035-0.069-0.029-0.079-0.07C23.969,308.514,23.902,308.514,23.836,308.514z
         M16.46,310.4c-0.003,0.033-0.05,0.025-0.07,0.047c-0.018,0.02-0.013,0.063-0.046,0.07c-0.003,0.039,0.016,0.098-0.022,0.102
        c-0.024,0.016-0.018,0.063-0.047,0.07c-0.006,0.033-0.05,0.027-0.046,0.068c-0.034,0.035-0.01,0.029,0,0.072
        c-0.011,0.043,0.013,0.094,0.03,0.043c0.044,0,0.088,0,0.131,0c-0.011-0.055,0.08-0.004,0.093-0.031
        c0.01-0.029,0.038-0.039,0.07-0.049c0.015-0.023,0.062-0.016,0.053-0.063c0.01-0.031,0.07-0.012,0.086-0.037
        c-0.024,0.002-0.04-0.076-0.009-0.08c0.047-0.045-0.038-0.039-0.037-0.07c-0.032-0.002-0.033-0.039-0.06-0.049
        c-0.023-0.016-0.023-0.055-0.068-0.047C16.498,310.439,16.491,310.396,16.46,310.4z M21.12,311.654
        c0.001,0.039-0.043,0.031-0.045,0.068c-0.023,0.059,0.031,0.041,0.045,0.063c0.017,0.021,0.037,0.037,0.07,0.041
        c0.003,0.031,0.056,0.012,0.06,0.043c0.004,0.031,0.061,0.012,0.063,0.045c0.052-0.012,0.033,0.043,0.086,0.025
        c0,0.037,0.043,0.031,0.047,0.064c0.025,0.014,0.037,0.043,0.087,0.029c-0.005-0.043,0.035-0.041,0.028-0.086
        c-0.003-0.041-0.003-0.08,0.024-0.092c-0.008-0.031,0.016-0.096-0.014-0.105c-0.007-0.031-0.054-0.025-0.093-0.025
        c-0.058,0.02-0.045-0.031-0.095-0.021c0-0.035-0.061-0.012-0.06-0.049C21.255,311.654,21.187,311.654,21.12,311.654z
         M17.198,317.49c0.014,0.086-0.105,0.035-0.154,0.047c-0.035,0.012-0.083,0.057-0.11,0c-0.061-0.01-0.152,0.023-0.197-0.016
        c0.016-0.09-0.092-0.047-0.143-0.057c-0.053,0.016,0.01,0.096-0.046,0.113c-0.058,0.045-0.081-0.047-0.134-0.045
        c0-0.049,0-0.094-0.045-0.123c0.001-0.053-0.037-0.074-0.03-0.129c-0.043-0.018-0.041-0.061-0.053-0.102
        c-0.045-0.025-0.037-0.072-0.081-0.105c-0.012-0.041,0.014-0.098-0.024-0.123c0.016-0.061-0.028-0.098-0.064-0.129
        c-0.004-0.033-0.021-0.068-0.069-0.064c-0.053-0.008-0.126,0.018-0.163-0.023c-0.065-0.018-0.118,0.014-0.154,0.066
        c-0.047,0.045-0.087,0.1-0.087,0.164c-0.03,0.029-0.063,0.037-0.101,0.057c-0.029-0.014-0.054,0.031-0.075,0.029
        c-0.052,0.037-0.109,0.043-0.175,0.037c-0.073-0.029-0.006,0.1-0.083,0.07c-0.027-0.006-0.04,0.053-0.063,0
        c-0.009-0.055-0.042-0.092-0.034-0.154c-0.035-0.023-0.008-0.076-0.046-0.102c0.012-0.041-0.013-0.072-0.021-0.105
        c0.004-0.055-0.083-0.107-0.035-0.16c0.048-0.029,0.069-0.084,0.056-0.141c0.054-0.027,0.01-0.109,0.021-0.156
        c-0.052-0.031-0.058-0.092-0.017-0.131c0.004-0.074-0.08-0.074-0.13-0.066c-0.035-0.01-0.08,0.002-0.098,0.02
        c-0.026-0.031-0.09-0.027-0.077-0.088c-0.033-0.025-0.073-0.061-0.109-0.061c-0.031-0.031-0.093,0.004-0.116-0.037
        c-0.064,0.012-0.1-0.029-0.152-0.051c-0.039,0.002-0.082,0.002-0.107,0.025c-0.044-0.006-0.062,0.029-0.1,0.035
        c-0.032,0.039-0.004,0.096-0.062,0.111c0.01,0.059-0.053,0.033-0.07,0.074c-0.04,0.023-0.014,0.066-0.056,0.08
        c-0.036,0.035-0.055,0.07-0.066,0.121c-0.013,0.035-0.03,0.07-0.021,0.113c-0.041,0.027-0.053,0.068-0.071,0.113
        c0.006,0.078,0,0.158,0.001,0.238c0.011,0.049-0.068,0.057-0.045,0.111c0,0.074-0.092,0.035-0.137,0.039
        c-0.059-0.035-0.055-0.102-0.05-0.162c-0.055-0.02,0.004-0.107-0.063-0.125c-0.054-0.025-0.046-0.098-0.097-0.113
        c-0.086,0.021-0.039-0.082-0.047-0.129c0.009-0.051-0.057-0.096,0.008-0.127c0.047-0.031,0.035-0.086,0.086-0.109
        c-0.009-0.041,0.055-0.066,0.053-0.104c0.027-0.021,0.005-0.076,0.04-0.092c-0.015-0.064,0.037-0.098,0.022-0.164
        c-0.003-0.051-0.076-0.064-0.074-0.117c-0.004-0.057,0.025-0.129-0.015-0.176c-0.014-0.047-0.041-0.076-0.027-0.131
        c-0.012-0.043-0.051-0.078-0.052-0.129c0.031-0.025,0.023-0.061,0.034-0.094c0.047-0.016,0.033-0.072,0.076-0.094
        c0.009-0.072,0.084-0.068,0.121-0.121c0.046-0.025,0.074-0.102,0.037-0.135c-0.027-0.039,0.086-0.064,0.06-0.117
        c0.062-0.027,0.003-0.107-0.042-0.109c-0.026-0.059,0.027-0.137-0.024-0.184c-0.018-0.041,0.048-0.072,0.02-0.123
        c-0.001-0.039,0-0.055-0.024-0.08c0.006-0.039-0.013-0.072-0.054-0.051c-0.028-0.039-0.077-0.01-0.102-0.051
        c-0.069,0.027-0.047-0.084-0.116-0.072c-0.013-0.025-0.049-0.016-0.073-0.045c-0.04-0.01-0.068,0.033-0.096,0.035
        c-0.041,0.047-0.086,0.086-0.128,0.131c-0.046,0.027,0.048,0.064-0.013,0.084c-0.043,0.029-0.041,0.072-0.068,0.104
        c-0.001,0.039,0.021,0.121-0.047,0.092c-0.039,0.049-0.101,0.018-0.153,0.031c-0.036,0.051-0.122-0.012-0.162,0.043
        c-0.052-0.02-0.083,0.061-0.124,0.061c-0.027,0.035-0.054,0.055-0.091,0.068c-0.025,0.029-0.067-0.002-0.087,0.039
        c-0.049-0.006-0.11,0.008-0.145-0.025c-0.028-0.023-0.063-0.025-0.092-0.031c0.002-0.041-0.027-0.043-0.029-0.08
        c-0.03-0.041-0.063-0.055-0.109-0.064c0-0.047-0.06-0.084-0.093-0.092c-0.026-0.045-0.083-0.043-0.107-0.088
        c-0.029-0.027-0.063-0.088-0.115-0.072c-0.037,0.002-0.058-0.041-0.098-0.02c-0.062-0.016-0.11,0.01-0.154,0.041
        c-0.022,0.039-0.054,0.051-0.088,0.063c-0.002,0.018-0.044,0.01-0.056,0.037c-0.062,0.01-0.141-0.008-0.148-0.084
        c-0.005-0.063-0.004-0.137,0.066-0.133c0.026-0.043,0.064-0.076,0.115-0.072c0.02-0.027,0.043-0.02,0.064-0.039
        c0.045,0,0.05-0.063,0.098-0.055c0.025-0.055,0.079-0.061,0.114-0.098c0.047-0.035,0.071-0.09,0.128-0.115
        c0.022,0.006,0.035-0.045,0.068-0.008c0.054,0.041,0.118-0.008,0.125-0.064c0.018-0.023,0.062-0.014,0.07-0.041
        c0.067,0.014,0.107-0.033,0.159-0.053c0.062,0.02,0.088-0.039,0.142-0.045c0.05,0.014,0.089-0.014,0.123-0.029
        c0.002-0.078,0.096-0.059,0.127-0.115c0.006-0.033,0.042-0.047,0.047-0.088c0.04-0.021,0.035-0.064,0.061-0.088
        c0.009-0.053,0.042-0.082,0.071-0.123c0.004-0.031,0.02-0.047,0.031-0.072c0.05,0.002,0.053-0.057,0.103-0.055
        c0.024-0.055,0.1-0.037,0.102-0.104c0.028-0.014,0.014-0.061,0.043-0.07c-0.015-0.061,0.031-0.092,0.023-0.152
        c0.011-0.047,0.074-0.059,0.039-0.115c-0.054-0.021-0.048-0.09-0.014-0.119c-0.003-0.119,0-0.238-0.001-0.357
        c0.033-0.018,0.062-0.051,0.091-0.061c0.073-0.008,0.078-0.09,0.07-0.154c-0.007-0.063,0-0.125,0.025-0.174
        c0.014-0.061-0.054-0.074-0.054-0.125c-0.04-0.033,0.006-0.1-0.054-0.125c-0.032-0.031,0.014-0.092-0.036-0.107
        c-0.028-0.047-0.068-0.055-0.114-0.064c-0.037-0.045-0.118,0.018-0.15-0.039c-0.044,0-0.096,0.008-0.125-0.023
        c-0.049,0.01-0.089-0.061-0.13-0.002c-0.06,0.027-0.049,0.121-0.115,0.121c-0.052-0.016-0.07,0.033-0.12,0.021
        c-0.05,0.041-0.114,0.051-0.154,0.113c-0.025,0.057-0.099,0.006-0.127,0.055c-0.08-0.004-0.16,0-0.239-0.002
        c-0.008-0.053,0.003-0.1,0.047-0.133c-0.006-0.063,0.074-0.047,0.094-0.094c0.062-0.039,0.079-0.094,0.069-0.164
        c-0.002-0.066-0.071-0.057-0.116-0.063c-0.028-0.037-0.074-0.076-0.082-0.115c-0.044-0.066-0.12-0.086-0.195-0.068
        c-0.034-0.004-0.113,0.02-0.095-0.043c-0.035-0.008-0.017-0.059-0.052-0.07c-0.049-0.027-0.057-0.088-0.015-0.123
        c0.007-0.059-0.011-0.141-0.089-0.119c-0.047,0.012-0.02-0.045-0.049-0.051c0.002-0.055-0.09-0.084-0.03-0.137
        c-0.004-0.055,0.022-0.133-0.018-0.174c-0.029-0.047-0.105-0.051-0.105-0.109c-0.025-0.023-0.008-0.078-0.038-0.096
        c-0.007-0.047,0.006-0.09,0.024-0.127c0.012-0.051-0.032-0.078-0.026-0.125c-0.025-0.025-0.021-0.055-0.046-0.082
        c-0.017-0.023-0.02-0.063-0.031-0.098c-0.036-0.031,0.008-0.131-0.022-0.16c-0.024-0.035-0.062-0.018-0.081-0.061
        c-0.027-0.02-0.045-0.01-0.062-0.035c-0.048-0.006-0.087-0.057-0.146-0.053c-0.024-0.049-0.109,0.014-0.135-0.043
        c-0.036,0.006-0.075-0.002-0.097-0.02c-0.05-0.01-0.021-0.086-0.021-0.117c0.042-0.029,0.016-0.115,0-0.141
        c0.031-0.031,0.068-0.035,0.097-0.07c0.045-0.016,0.1,0.01,0.13-0.031c0.041,0.008,0.089,0.006,0.117-0.021
        c0.068-0.012,0.158,0.027,0.206-0.023c0.059-0.006,0.112,0,0.155,0.025c0.063-0.006,0.127,0,0.192-0.002c0.079,0,0.158,0,0.237,0
        c0.001-0.023,0.034-0.041,0.031-0.063c0.066-0.021,0.138,0.002,0.206-0.008c0.176,0,0.351,0,0.529,0
        c0.032,0.057,0.115,0.006,0.169,0.025c0.029-0.045,0.063-0.01,0.1,0.002c0.061-0.008,0.125-0.002,0.185-0.002
        c0.053,0,0.105-0.016,0.131,0.039c0.042,0.051,0.051,0.119,0.038,0.193c0.005,0.061,0.044,0.096,0.066,0.154
        c0.03,0.031,0.122-0.01,0.103,0.061c0.044,0.02,0.056,0.07,0.068,0.109c-0.021,0.066,0.039,0.096,0.021,0.16
        c0.003,0.045,0,0.078-0.026,0.109c0.011,0.023-0.044,0.031-0.003,0.053c0.03,0.045-0.029,0.072-0.017,0.117
        c-0.013,0.037-0.054,0.045-0.054,0.088c-0.051,0.051,0.007,0.115,0.006,0.168c-0.002,0.047,0.059,0.096-0.002,0.133
        c0.018,0.051-0.037,0.076-0.021,0.129c-0.016,0.057,0.043,0.098,0.039,0.141c-0.033,0.008,0.023,0.051,0.017,0.072
        c0.046,0.037,0.066,0.092,0.062,0.154c0.028,0.043,0.104,0.033,0.095,0.102c0.027,0.006,0.009,0.063,0.055,0.051
        c0.047-0.012,0.096-0.004,0.081,0.057c-0.013,0.041-0.053,0.096,0.006,0.127c0.043,0.016,0.1-0.01,0.128,0.029
        c0.051,0.008,0.074-0.047,0.129-0.023c0.064,0.023,0.114-0.043,0.17-0.02c0.022,0.041,0.125-0.008,0.098,0.072
        c-0.015,0.057,0.011,0.127,0.082,0.115c0.058,0.002,0.107-0.004,0.142-0.049c0.005,0.043,0.02,0.104,0.073,0.098
        c-0.004,0.07,0.081,0.076,0.134,0.064c0.079-0.02,0.063,0.07,0.115,0.092c0.046,0.012,0.092-0.008,0.128,0.029
        c0.057-0.021,0.082,0.039,0.14,0.021c0.054,0,0.107,0.002,0.16,0.002c-0.009,0.059,0.06,0.086,0.045,0.148
        c0.043,0.031,0.008,0.094,0.064,0.113c0.034,0.045,0.083,0.082,0.123,0.129c0.024,0.045,0.083,0.023,0.111,0.055
        c0.055-0.01,0.08,0.059,0.125,0.066c0.026,0.018,0.064,0,0.087,0.033c0.06,0.002,0.127-0.018,0.184,0.008
        c0.022,0.025,0.074,0.004,0.09,0.037c0.063,0.012,0.096-0.039,0.161-0.023c0.047-0.004,0.096,0.016,0.118-0.029
        c0.044-0.049,0.137,0.018,0.184-0.043c0.049-0.01,0.131,0.023,0.152-0.018c0.03-0.047,0.081-0.025,0.114-0.002
        c0.051,0.004,0.065-0.053,0.113-0.061c0.029-0.02,0.014-0.08,0.063-0.064c0.044-0.041,0.047-0.094,0.064-0.145
        c0.039-0.033,0.069-0.063,0.114-0.082c0.05-0.041,0.073-0.096,0.057-0.162c0.002-0.09,0.001-0.18,0.001-0.27
        c-0.029-0.008-0.046-0.037-0.081-0.023c-0.028-0.025-0.011-0.102-0.002-0.115c0.062-0.002,0.076-0.07,0.104-0.109
        c0.008-0.053,0.006-0.115-0.02-0.154c-0.014-0.039,0.009-0.092,0.013-0.109c-0.048-0.055,0.027-0.086,0.008-0.141
        c0.017-0.051-0.018-0.107-0.066-0.109c-0.02-0.064-0.118-0.014-0.096-0.094c0.001-0.098-0.001-0.199,0.001-0.297
        c-0.014-0.064-0.038-0.119-0.079-0.166c-0.041-0.057-0.11-0.066-0.146-0.129c-0.046-0.018-0.082-0.043-0.086-0.092
        c-0.045-0.021-0.07-0.08-0.085-0.117c-0.025-0.041-0.038-0.121-0.005-0.174c0.028-0.047-0.009-0.129-0.072-0.109
        c-0.066,0.012-0.122-0.004-0.178-0.029c-0.023-0.039-0.102-0.078-0.06-0.135c0.033-0.043,0.005-0.121,0.014-0.178
        c-0.01-0.053,0.024-0.135-0.021-0.162c0.003-0.033-0.008-0.066-0.023-0.086c-0.001-0.057-0.056-0.102-0.054-0.156
        c-0.045-0.049,0.012-0.127-0.04-0.166c0.002-0.041-0.015-0.086-0.049-0.107c-0.023,0.006-0.03-0.029-0.064-0.021
        c-0.014-0.029-0.046-0.059-0.061-0.02c-0.034-0.055-0.11-0.006-0.164-0.027c-0.043-0.02-0.096-0.045-0.081-0.107
        c-0.046-0.021,0.004-0.113-0.063-0.127c-0.007-0.053-0.05-0.102-0.11-0.094c-0.063,0.008-0.051-0.08-0.106-0.105
        c-0.042-0.041-0.077-0.09-0.122-0.123c-0.062-0.018-0.126,0-0.19-0.008c-0.028,0.002-0.059-0.008-0.062,0.021
        c-0.042-0.008-0.062-0.07-0.076-0.092c-0.027-0.039-0.03-0.098-0.074-0.117c-0.028,0-0.052-0.033-0.076-0.031
        c-0.036-0.027-0.054-0.074-0.055-0.109c-0.045-0.029-0.066-0.094-0.125-0.102c-0.03,0.004-0.059,0.057-0.053-0.006
        c-0.002-0.037-0.038-0.059-0.027-0.102c-0.03-0.023-0.011-0.082-0.059-0.105c-0.003-0.043-0.068-0.063-0.055-0.109
        c-0.034-0.02-0.033-0.072-0.072-0.09c-0.045-0.041-0.095-0.098-0.092-0.164c-0.055-0.037-0.047-0.107-0.043-0.166
        c0.013-0.064-0.057-0.086-0.046-0.148c-0.003-0.049-0.025-0.092-0.064-0.125c-0.04-0.035-0.033-0.096-0.091-0.111
        c-0.042-0.02-0.073,0.01-0.103,0.021c-0.024-0.02-0.039-0.021-0.067-0.037c-0.026-0.014-0.076-0.012-0.098-0.053
        c-0.018-0.02-0.067,0.012-0.072-0.033c-0.033,0.055-0.118,0.002-0.151,0.049c-0.062-0.01-0.154,0.031-0.187-0.033
        c-0.061-0.033,0.009-0.113-0.05-0.145c-0.028-0.016-0.07-0.008-0.086-0.035c-0.05,0.006-0.108,0.006-0.142-0.02
        c-0.037-0.006-0.02-0.053-0.048-0.064c0.005-0.047-0.069-0.057-0.046-0.115c-0.032-0.033-0.073-0.066-0.08-0.107
        c-0.042-0.037-0.047-0.09-0.099-0.123c-0.042-0.027-0.03-0.098-0.098-0.094c-0.036-0.053-0.081-0.092-0.135-0.111
        c-0.045,0.004-0.063-0.037-0.112-0.025c-0.035-0.033-0.067-0.08-0.079-0.123c0.031-0.059,0.097-0.063,0.134-0.117
        c-0.01-0.057,0.09-0.063,0.112-0.014c0.044,0.023,0.117,0.033,0.154,0.002c0.035-0.014,0.107,0.004,0.115-0.055
        c0.03-0.006,0.021-0.055,0.041-0.068c0.014-0.066,0.091-0.063,0.118-0.115c-0.003-0.047,0.074-0.055,0.069-0.111
        c0.004-0.037,0.034-0.055,0.025-0.098c0.027-0.035,0.046-0.086,0.069-0.129c-0.011-0.035,0.016-0.057,0.042-0.053
        c0.036-0.047,0.089,0.008,0.121,0.018c0.038,0.051,0.099,0.055,0.147,0.09c0.037-0.008,0.08-0.002,0.104-0.027
        c0.065,0.006,0.103-0.07,0.173-0.049c0.046,0.004,0.087,0.049,0.135,0.012c0.005-0.029,0.044,0.043,0.047-0.012
        c0.067-0.01,0.138,0.016,0.202-0.01c0.021-0.018,0.053-0.023,0.073-0.039c0.065,0.016,0.126-0.051,0.14-0.104
        c0.033-0.031,0.016-0.061,0.046-0.082c0.014-0.057-0.072-0.068-0.051-0.133c-0.021-0.041-0.075-0.035-0.098-0.078
        c-0.033-0.01-0.056,0.004-0.074-0.025c-0.043,0.002-0.063-0.063-0.101-0.057c-0.021-0.029-0.077-0.006-0.091-0.039
        c-0.095,0.002-0.189,0-0.283,0c-0.002-0.045-0.079-0.006-0.089-0.049c-0.065,0.004-0.133,0.016-0.176-0.041
        c-0.061-0.01-0.132-0.018-0.179,0.02c-0.054,0.01-0.068-0.08-0.125-0.047c-0.051,0.012-0.021-0.059-0.064-0.063
        c-0.026-0.051-0.026-0.127-0.006-0.176c0.027-0.029-0.001-0.092,0.035-0.117c-0.012-0.041,0.029-0.055,0.027-0.09
        c0.038-0.037,0.045-0.09,0.048-0.145c0.048-0.035-0.013-0.123,0.042-0.162c0.062-0.033-0.016-0.133,0.042-0.152
        c0-0.059,0.026-0.09,0.053-0.137c0.015-0.064-0.037-0.094-0.077-0.137c-0.042-0.02,0.029-0.051,0.004-0.092
        c0.032-0.016,0.021-0.082,0.073-0.055c0.059,0.018,0.09-0.031,0.101-0.078c0.043-0.016,0.03-0.059,0.057-0.078
        c0-0.041,0.036-0.049,0.023-0.092c0.023-0.07-0.037-0.123-0.021-0.188c0.004-0.057-0.024-0.1-0.066-0.137
        c0.004-0.051-0.063-0.057-0.052-0.111c-0.037-0.002-0.012-0.072-0.06-0.053c-0.042-0.057-0.087,0.039-0.142-0.002
        c-0.014-0.031,0.003-0.086-0.029-0.113c-0.024-0.053-0.053-0.117-0.114-0.125c0-0.055-0.072-0.064-0.049-0.127
        c-0.006-0.055,0.04-0.084,0.022-0.139c0-0.203,0-0.402,0-0.605c0.04,0.004,0.016-0.059,0.055-0.064
        c0.035-0.059,0.104-0.059,0.145-0.102c0.031,0.021,0.047-0.049,0.07,0.002c0.071,0.006,0.141-0.004,0.211,0.004
        c0.076-0.008,0.063-0.123,0.141-0.123c0.06,0.008,0.074-0.098,0.012-0.121c-0.028-0.055-0.087-0.049-0.13-0.016
        c-0.04-0.014-0.059,0.051-0.094,0c-0.058-0.002-0.129-0.018-0.182,0.008c-0.034,0.059-0.068-0.08-0.099-0.01
        c-0.035-0.059-0.107,0-0.154-0.037c-0.01-0.039-0.037,0.043-0.045-0.006c-0.047-0.025-0.116,0.021-0.15-0.033
        c-0.054-0.029-0.064-0.088-0.056-0.143c-0.032-0.029-0.032-0.066,0.011-0.088c0.04-0.039-0.063-0.014-0.022-0.055
        c0.033-0.033,0.007-0.105-0.037-0.127c-0.04-0.033-0.067-0.088-0.114-0.105c-0.044,0.004-0.009-0.053-0.049-0.061
        c-0.061-0.021-0.035-0.113-0.051-0.152c-0.04-0.033,0.059-0.027,0.085-0.023c0.056,0.008,0.083-0.033,0.14-0.025
        c0.044-0.012,0.05-0.084,0.1-0.066c0.02-0.035,0.074-0.029,0.086-0.076c0.021,0.008,0.015-0.031,0.049-0.023
        c0.028-0.031,0.089-0.008,0.108-0.063c0.061,0.002,0.052-0.084,0.032-0.125c-0.009-0.018-0.033-0.049-0.029-0.066
        c0.049-0.031,0.075-0.084,0.065-0.137c0.047-0.031,0.009-0.1-0.002-0.135c0.009-0.049-0.018-0.129,0.013-0.156
        c0.063,0.004,0.124-0.043,0.153-0.094c-0.034-0.043-0.021-0.102-0.073-0.129c0.015-0.061-0.052-0.021-0.065-0.07
        c-0.026-0.025-0.059-0.01-0.054-0.055c-0.054-0.035,0.005-0.107,0.028-0.143c0.006-0.039,0.003-0.086-0.043-0.084
        c-0.031-0.039-0.083,0.006-0.113-0.039c-0.017,0.029-0.086,0.025-0.078,0.082c-0.051,0.025,0.009,0.096-0.045,0.113
        c0.012,0.066-0.066,0.055-0.089,0.096c-0.02,0.018-0.07,0.02-0.05,0.059c-0.038,0.002-0.012,0.074-0.061,0.055
        c-0.037,0.061-0.107,0.041-0.166,0.043c-0.04,0.006-0.094-0.018-0.107,0.023c-0.04-0.043,0.011-0.119-0.022-0.168
        c-0.051-0.025-0.032-0.104-0.106-0.094c-0.061,0.023-0.067-0.072-0.124-0.068c-0.042,0.002-0.064,0-0.085-0.035
        c-0.029-0.033-0.059-0.072-0.11-0.064c-0.024-0.039-0.071-0.006-0.093-0.047c-0.04,0.02-0.065-0.029-0.096-0.027
        c-0.023-0.059-0.091-0.023-0.115-0.066c-0.047-0.008-0.066,0.045-0.115,0.027c-0.03,0.002-0.036,0.027-0.065,0.025
        c-0.016,0.053-0.064,0.113-0.123,0.121c-0.04,0.041-0.135,0.008-0.196,0.018c-0.035-0.027-0.075-0.096-0.141-0.07
        c-0.05,0.012-0.07-0.035-0.117-0.025c-0.034-0.041,0.016-0.123-0.032-0.156c0.021-0.047-0.037-0.055-0.047-0.07
        c0.017-0.07-0.054-0.08-0.099-0.09c-0.01-0.064-0.117-0.006-0.087-0.088c-0.014-0.029-0.031-0.039-0.024-0.078
        c-0.017-0.023-0.042-0.008-0.057-0.035c-0.068,0.014-0.041-0.104-0.111-0.072c-0.036-0.027-0.064-0.07-0.117-0.047
        c-0.041,0-0.056-0.035-0.099-0.025c-0.033-0.025-0.085-0.035-0.087-0.092c-0.037-0.033,0.005-0.088-0.041-0.115
        c0.011-0.055,0.002-0.104-0.044-0.137c-0.011-0.063-0.092-0.098-0.129-0.154c-0.024-0.039-0.067-0.053-0.117-0.047
        c-0.037-0.057-0.114,0.031-0.1,0.078c-0.019,0.041-0.059,0.018-0.049-0.02c-0.036-0.059-0.108-0.023-0.162-0.033
        c-0.043,0-0.061,0.031-0.104,0.027c-0.038,0.02-0.034,0.064-0.058,0.092c0.021,0.063-0.029,0.092-0.069,0.127
        c-0.033,0.021-0.011,0.072-0.059,0.064c-0.019,0.023-0.007,0.053-0.045,0.045c-0.038,0.023-0.061,0.096-0.116,0.068
        c-0.038-0.027,0.013-0.084-0.04-0.109c-0.026-0.016-0.019-0.059-0.041-0.072c0.005-0.043-0.024-0.064-0.033-0.098
        c-0.02-0.031-0.076-0.018-0.063-0.074c0.019-0.055-0.004-0.135-0.073-0.115c-0.033,0.018-0.061,0.039-0.1,0.051
        c-0.033-0.047-0.098-0.041-0.132-0.092c-0.029-0.043-0.073-0.029-0.099-0.076c-0.023-0.07-0.127-0.025-0.129-0.107
        c-0.01-0.021-0.065-0.051-0.044-0.098c0.02-0.066-0.034-0.119-0.025-0.184c0.007-0.055-0.009-0.117,0.025-0.158
        c0.013-0.057,0.084-0.041,0.105-0.094c0.032-0.018,0.033-0.039,0.041-0.07c0.029-0.035,0.101-0.016,0.121-0.07
        c0.036-0.039-0.004-0.088-0.003-0.121c0.039-0.033,0.083-0.092,0.153-0.068c0.048,0.004,0.104,0.012,0.137-0.023
        c0.046,0.008,0.065-0.031,0.11-0.029c0.044-0.018,0.081-0.055,0.114-0.09c0.052-0.039,0.062-0.107,0.12-0.146
        c0.042-0.027,0.052-0.072,0.065-0.121c0.047-0.033,0.086-0.086,0.128-0.125c-0.02-0.074,0.073-0.107,0.069-0.176
        c-0.032-0.068,0.064-0.086,0.047-0.152c0.062-0.045-0.023-0.096-0.003-0.152c0.021-0.074-0.057-0.113-0.099-0.16
        c-0.039-0.041-0.07-0.092-0.129-0.084c-0.042-0.031-0.124-0.025-0.16,0.006c-0.058,0.012-0.103-0.01-0.146-0.035
        c-0.018-0.033-0.058-0.039-0.083-0.041c-0.047-0.031-0.129-0.025-0.175-0.006c-0.06,0.031-0.142-0.004-0.21,0.016
        c-0.035,0.031-0.092,0.006-0.113,0.057c-0.065,0.018-0.146,0.016-0.205,0c-0.035-0.023-0.113-0.004-0.128-0.064
        c-0.029-0.033-0.01-0.111-0.002-0.137c0.053-0.055,0.145-0.012,0.215-0.025c0.062,0.02,0.086-0.055,0.123-0.084
        c-0.003-0.055,0.079-0.068,0.074-0.121c0.028-0.027,0.016-0.061,0.056-0.08c0.042-0.027,0.028-0.1,0.096-0.094
        c0.073,0.016,0.083-0.061,0.075-0.119c0-0.047-0.013-0.09,0.03-0.111c0.021-0.021,0.024-0.053,0.043-0.08
        c0-0.055,0.073-0.039,0.111-0.049c0.038-0.027,0.071-0.094,0.038-0.137c-0.035-0.037-0.01-0.098,0.024-0.121
        c0.027-0.029,0.081-0.072,0.104-0.117c-0.021-0.027-0.029-0.057-0.029-0.086c-0.035-0.02-0.007-0.057-0.047-0.068
        c-0.024-0.037-0.036-0.068-0.051-0.105c-0.023-0.02-0.052-0.051-0.08-0.057c-0.021-0.057,0.017-0.113,0.073-0.121
        c0.022-0.027,0.054-0.049,0.018-0.072c0.012-0.02,0.057,0.002,0.052-0.033c0.068,0.016,0.089-0.094,0.041-0.127
        c-0.019-0.045,0.023-0.072,0.058-0.066c0.047-0.027,0.127-0.031,0.166,0.006c0.053,0,0.071,0.086,0.135,0.072
        c0.032,0.029,0.076,0.014,0.105,0.043c0.066,0,0.137,0.016,0.195-0.021c0.06-0.02,0.105,0.049,0.165,0.021
        c0.023-0.018,0.023-0.021,0.048-0.002c0.052,0.006,0.117,0.018,0.151-0.027c0.014-0.043,0.065-0.035,0.083-0.063
        c0.043,0.014,0.066-0.09,0.107-0.029c0.049,0.029,0.119-0.01,0.117-0.061c0.048-0.037,0.042-0.09,0.097-0.119
        c0.024-0.047,0.018-0.111-0.012-0.141c0.02-0.057-0.061-0.072-0.055-0.119c-0.052-0.043,0.011-0.102,0.062-0.074
        c0.046,0.021,0.077-0.053,0.103,0.004c0.009,0.031,0.009,0.045,0.044,0.047c0.034,0.049,0.073-0.047,0.104-0.063
        c0.036-0.031,0.037-0.104,0.086-0.135c0-0.051,0.035-0.098,0.056-0.145c0-0.021,0.039-0.045,0.02-0.082
        c-0.011-0.061,0.007-0.123-0.003-0.182c-0.035-0.051-0.049-0.113-0.103-0.156c-0.049-0.037-0.099-0.043-0.143-0.092
        c-0.049-0.012-0.07,0.039-0.121,0.023c-0.059,0.018-0.097-0.025-0.106-0.076c-0.041-0.045-0.105-0.051-0.129-0.111
        c-0.013-0.068,0.06-0.061,0.089-0.1c0.037-0.059,0.084,0.049,0.129-0.012c0.007-0.016,0.035,0.035,0.062,0.016
        c-0.003,0.049,0.077-0.002,0.08,0.047c0.028,0,0.065,0.027,0.081,0.037c0.054,0.004,0.071,0.076,0.133,0.059
        c0.054-0.01,0.139,0.016,0.17-0.012c0.019-0.018,0.053-0.018,0.067-0.037c0.041,0.006,0.056,0.076,0.105,0.045
        c0.035,0.059,0.076,0.004,0.098-0.023c0.025-0.045,0.108,0.002,0.148-0.031c0.037-0.033,0.069-0.084,0.113-0.107
        c0.044-0.01,0.073-0.061,0.083-0.092c0.028-0.031,0.063-0.072,0.058-0.109c-0.058-0.029,0.013-0.115-0.039-0.152
        c-0.012-0.039,0-0.092-0.029-0.117c0.019-0.041-0.047-0.055-0.005-0.08c0.01-0.061,0.044-0.115,0.026-0.186
        c-0.007-0.023,0.049-0.023,0.01-0.049c-0.01-0.021,0.06-0.068,0.073-0.086c0.038-0.014,0.068-0.041,0.113-0.027
        c0.058-0.027,0.072-0.096,0.061-0.16c-0.008-0.066,0.012-0.117,0.049-0.168c0.003-0.061,0.107,0.008,0.131-0.051
        c0.042,0.004,0.09,0.008,0.118-0.021c0.047,0.006,0.065-0.031,0.111-0.029c0.043-0.031,0.098-0.041,0.133-0.086
        c0.045,0.006,0.055-0.047,0.073-0.07c0.068-0.012,0.008-0.09,0.059-0.121c-0.015-0.051,0.011-0.092,0.026-0.133
        c-0.01-0.041-0.057-0.064-0.061-0.102c-0.049,0.004-0.079-0.018-0.059-0.068c-0.01-0.051,0.012-0.096,0.041-0.125
        c0.031,0.008,0.043,0.023,0.073,0.033c0.021,0.027,0.035,0.057,0.063,0.018c0.039,0.033,0.088,0.043,0.13,0.074
        c0.069-0.021,0.149,0.018,0.214-0.021c0.019-0.027,0.004-0.074,0.034-0.09c-0.002-0.059,0.055-0.055,0.095-0.068
        c0.035-0.025,0.125,0,0.119-0.076c0.023-0.027,0.041-0.076,0.055-0.105c0.043-0.029,0.079-0.08,0.097-0.115
        c0.003-0.043,0.037-0.057,0.056-0.094c0.001-0.025,0.034-0.039,0.022-0.074c0.018-0.041,0.076-0.105,0.112-0.037
        c0.03,0.033,0.044,0.092,0.086,0.107c0.049-0.002,0.031,0.072,0.08,0.082c0.008,0.049,0,0.113-0.066,0.084
        c-0.055-0.004-0.04,0.086-0.088,0.082c-0.037,0.033-0.101-0.006-0.127,0.053c-0.033,0.035-0.081,0.066-0.067,0.121
        c-0.014,0.045-0.034,0.078-0.024,0.129c0,0.055,0,0.109,0,0.162c0.051,0.02,0.062,0.078,0.118,0.08
        c0.019,0.063,0.106,0.018,0.136,0.063c0.034-0.004,0.063-0.088,0.097-0.031c-0.023,0.051-0.074,0.09-0.078,0.146
        c-0.054,0.051-0.131,0.014-0.196,0.025c-0.079,0-0.159,0-0.239,0c-0.019,0.053-0.108-0.002-0.125,0.066
        c-0.024,0.033-0.062,0.035-0.097,0.055c-0.06-0.021-0.093,0.027-0.147,0.025c-0.02,0.027-0.07,0.016-0.092,0.041
        c-0.036,0.01-0.061,0.061-0.094,0.059c-0.028,0.053-0.097,0.02-0.125,0.08c-0.046,0-0.067,0.07-0.126,0.051
        c-0.059-0.018-0.072,0.061-0.125,0.057c-0.042,0.043-0.088,0.092-0.063,0.162c0.024,0.055,0.081,0.078,0.117,0.127
        c0.046,0.037,0.084-0.035,0.138-0.016c0.047,0.006,0.078,0.037,0.131,0.023c0.04,0.027,0.086,0.027,0.138,0.023
        c0.049,0,0.098,0,0.146,0c0.014,0.037,0.065,0.063,0.05,0.105c0.041,0.037-0.004,0.105,0.048,0.125
        c0.054,0.025,0.127-0.008,0.188,0.012c0.035,0.031,0.091,0.008,0.113,0.061c0.019,0.012,0.063,0.008,0.025,0.035
        c-0.012,0.025,0.057,0.066,0.077,0.018c0.034,0.012,0.048-0.047,0.084-0.02c0.023-0.02,0.039-0.033,0.053-0.004
        c0.036-0.004,0.112,0,0.058,0.041c0.011,0.043-0.004,0.09-0.047,0.086c-0.029,0.025-0.047,0.063-0.057,0.088
        c-0.035,0.033-0.063,0.074-0.111,0.084c-0.03,0.059-0.019,0.152-0.008,0.199c0.049,0.02,0.029,0.098,0.096,0.098
        c0.052-0.023,0.107-0.037,0.168-0.025c0.065,0.016,0.109-0.059,0.171-0.012c0.015,0.02,0.089-0.002,0.065,0.055
        c-0.009,0.055,0.001,0.102,0.046,0.135c-0.005,0.078,0.099,0.055,0.149,0.057c0.059-0.021,0.082,0.057,0.124,0.057
        c0.004,0.068,0.104,0.084,0.1,0.15c0.012,0.053-0.046,0.057-0.072,0.064c-0.029,0.045-0.108,0.035-0.094,0.109
        c0.003,0.031-0.01,0.068,0.022,0.078c-0.003,0.033,0.007,0.066,0.024,0.084c0.004,0.061,0.041,0.104,0.083,0.145
        c0.038,0.027,0.043,0.086,0.075,0.129c0.032,0.023,0.068,0.002,0.093,0.037c0.035,0.02,0.081,0.027,0.128,0.021
        c0.045,0.023,0.082,0.061,0.127,0.094c0.044,0.002,0.104-0.012,0.123,0.043c0.035-0.002,0.056,0.02,0.022,0.039
        c0.018,0.068,0.103,0.012,0.13,0.061c0.058-0.012,0.102,0.01,0.146,0.033c0.012,0.033,0.058,0.039,0.07,0.051
        c0.045,0.02,0.08,0.041,0.125,0.063c0.051-0.023,0.088,0.01,0.121,0.039c0.043-0.006,0.077,0.016,0.11,0.027
        c0.054-0.021,0.038-0.109,0.108-0.098c0.029,0.016,0.042,0.029,0.081,0.029c0.034,0.047,0.003,0.127,0.014,0.189
        c-0.006,0.057,0.011,0.145-0.009,0.186c-0.06,0.006-0.116,0.004-0.165-0.025c-0.041-0.025-0.062-0.102-0.11-0.041
        c-0.018-0.018-0.059-0.049-0.072-0.002c-0.048-0.014-0.064,0.061-0.109,0.055c-0.032,0.041-0.05,0.076-0.051,0.129
        c-0.041,0.016-0.01,0.09-0.017,0.131c0.016,0.063-0.064,0.125-0.001,0.174c-0.009,0.055-0.002,0.105,0.046,0.137
        c0.019,0.043,0.071,0.021,0.083,0.063c0.037,0.025,0.051,0.072,0.098,0.07c0.032,0.039,0.071,0.07,0.105,0.107
        c0.058,0.01,0.081,0.066,0.101,0.111c0.037,0.016,0.069,0.02,0.053,0.072c-0.01,0.055,0.042,0.086,0.023,0.145
        c0.003,0.061-0.019,0.123,0.035,0.154c0.028,0.01-0.035,0.031,0.008,0.055c0.003,0.045,0.077,0.076,0.05,0.141
        c-0.022,0.078,0.07,0.096,0.108,0.141c0.017,0.049,0.053-0.047,0.052,0.014c-0.002,0.033,0.054,0.023,0.062,0.049
        c0.07-0.02,0.11,0.066,0.04,0.1c-0.007,0.027-0.009,0.068-0.028,0.084c0.034,0.051,0.107,0.033,0.139,0.006
        c0.025-0.002,0.053-0.055,0.067-0.006c-0.004,0.045,0.044,0.018,0.059,0.055c0.038-0.006,0.077-0.002,0.103,0.025
        c0.034-0.008,0.068-0.057,0.092-0.041c0.045,0.039,0.118-0.002,0.173,0.018c0.029,0.031,0.083,0.014,0.106,0.047
        c0.046-0.004,0.072-0.033,0.122-0.027c0.059-0.008,0.031-0.092,0.06-0.105c-0.056-0.051,0.088-0.051,0.051,0.014
        c-0.01,0.07,0.075,0.088,0.103,0.119c0.029,0,0.064,0,0.075,0.023c0.044-0.014,0.077,0.014,0.108,0.02
        c0.038,0.002,0.06,0.027,0.092,0.043c0.018,0.02,0.017,0.051,0.038,0.072c-0.068,0.029-0.038,0.104-0.046,0.162
        c-0.007,0.074,0.033,0.148,0.098,0.166c0.028,0.045,0.077,0.025,0.108,0.055c0.05-0.01,0.059,0.041,0.108,0.025
        c0.061,0.02,0.104-0.027,0.16-0.025c0.039,0.006,0.05-0.025,0.082-0.031c0.033-0.025,0.019-0.066,0.065-0.088
        c0.014-0.029,0.059-0.043,0.059-0.088c0.029-0.02,0.013-0.049,0.04-0.066c0.011-0.066,0.103-0.092,0.122-0.16
        c0.035-0.025,0.001-0.092,0.039-0.115c0.039,0.01,0.026-0.08,0.088-0.066c0.006-0.029,0.057-0.016,0.066-0.045
        c0.032,0.049,0.13,0.031,0.128-0.037c-0.011-0.039,0.013-0.072,0.049-0.07c0.043-0.033,0.017-0.08-0.008-0.109
        c0.031-0.076-0.038-0.131-0.089-0.174c-0.048-0.033-0.041-0.088-0.091-0.115c-0.022-0.072,0.052-0.09,0.101-0.098
        c0.02-0.047,0.101-0.039,0.086-0.105c0.002-0.059,0.1-0.016,0.07,0.035c-0.025,0.066,0.047,0.096,0.101,0.084
        c0.031,0.029,0.084,0.063,0.085,0.111c0.003,0.053,0.099,0.092,0.099,0.145c0.077,0,0.053,0.086,0.074,0.125
        c0.017,0.041,0.049,0.102,0.11,0.092c0.058,0.021,0.097,0.082,0.152,0.119c0.044,0.008,0.073,0.068,0.111,0.1
        c0.025,0.039,0.07,0.041,0.093,0.064c0.088,0,0.176,0,0.263,0c0.032-0.055,0.113-0.006,0.167-0.021
        c0.036-0.025,0.085-0.066,0.091-0.113c0.059,0,0.085-0.045,0.146-0.029c0.032,0.029,0.121,0.02,0.11,0.096
        c0.035,0.023,0.085,0.082,0.129,0.021c0.095,0,0.19,0,0.285,0c0.024,0.057,0.084,0.09,0.139,0.096
        c0.053-0.02,0.088,0.027,0.114,0.055c0.016,0.025,0.028,0.021,0.023,0.053c0.035,0.014,0.069,0.018,0.098,0.035
        c0.028-0.018,0.053,0.025,0.059,0.016c0.029-0.027,0.07-0.008,0.09-0.037c0.039,0,0.039-0.035,0.084-0.027
        c0.043-0.025,0.11-0.035,0.157-0.012c-0.052,0.027,0.002,0.107,0.058,0.084c0.036-0.033,0.082-0.074,0.097-0.117
        c0.035,0.012,0.085-0.014,0.096-0.018c0.028,0.064,0.11,0.023,0.147,0.055c0.037,0.02,0.08,0.043,0.117,0.059
        c0.06,0.018,0.061,0.096,0.116,0.131c0.017,0.01,0.058,0.01,0.045,0.051c-0.021,0.07,0.052,0.078,0.096,0.088
        c0.015,0.016,0.047,0.025,0.071,0.041c0.042-0.008,0.104,0.004,0.126-0.023c0.039,0.053,0.102,0.004,0.077-0.051
        c0.003-0.049,0.082-0.061,0.078-0.119c0.048,0.01,0.131-0.021,0.156,0.016c-0.008,0.049-0.006,0.094,0.025,0.127
        c-0.003,0.045-0.043,0.084-0.028,0.131c-0.032,0.021-0.019,0.055-0.045,0.072c0.002,0.035-0.031,0.039-0.024,0.072
        c-0.027,0.016-0.047,0.002-0.06,0.035c-0.036,0.027-0.092,0.084-0.033,0.125c0.013,0.025,0.056,0.008,0.06,0.041
        c0.024,0.031,0.073,0.012,0.056,0.066c0.003,0.029,0.03,0.029,0.023,0.063c0.043,0.02,0.077,0.041,0.132,0.035
        c0.025,0.018,0.017,0.023,0.042,0c0.051-0.023,0.072,0.045,0.125,0.02c0.061-0.008,0.124,0.016,0.16,0.057
        c0.059,0.035,0.055,0.104,0.1,0.146c0.022,0.029,0.088-0.012,0.099,0.031c0.039,0.01,0.08,0,0.105-0.021
        c0.043,0.014,0.055-0.027,0.092-0.027c0.047-0.047,0.121-0.01,0.162,0.014c0.003,0.061,0.078,0.078,0.083,0.135
        c0.02,0.027,0.013,0.051,0.053,0.051c0.014,0.029,0.001,0.064,0.033,0.092c-0.022,0.051,0.044,0.07,0.063,0.084
        c0.047,0.004,0.059,0.053,0.105,0.063c0.023-0.002,0.002,0.051,0.037,0.053c0.035,0.035,0.063,0.084,0.111,0.09
        c0.038,0.055,0.088,0.078,0.144,0.098c0.015,0.029,0.043-0.031,0.079-0.01c0.038,0.006,0.096-0.02,0.086,0.045
        c0.035,0.029,0.067,0.066,0.102,0.098c0.012,0.023,0.017,0.051,0.033,0.064c-0.008,0.055,0.043,0.072,0.024,0.129
        c0,0.053-0.009,0.109,0.009,0.16c0.035,0.039-0.008,0.109,0.036,0.139c-0.001,0.051,0.024,0.088,0.059,0.123
        c0.046-0.018,0.031,0.057,0.063,0.068c0.031,0.029,0.056,0.09,0.035,0.139c-0.044,0.031-0.069,0.1-0.129,0.104
        c-0.043-0.025-0.06,0.039-0.104,0.02c-0.055,0.027-0.068,0.084-0.068,0.137c-0.055,0.043,0.024,0.092,0.006,0.146
        c0.011,0.053-0.06,0.074-0.056,0.117c-0.061,0.023-0.019,0.113-0.06,0.131c0.032,0.031,0.032,0.1,0.004,0.139
        c-0.017,0.045-0.046,0.088-0.064,0.133c-0.044-0.002-0.097,0.008-0.126-0.025c-0.051,0.025-0.136,0.059-0.116,0.133
        c0.043,0.037,0.064,0.08,0.113,0.105c0.055,0.002,0.013,0.074,0,0.096c0.047,0.033-0.001,0.143,0.069,0.131
        c0.038-0.043,0.096-0.008,0.125,0.025c0.036,0.018,0.084-0.008,0.099,0.029c0.059-0.008,0.051,0.07,0.077,0.086
        c-0.007,0.064,0.098,0.045,0.07,0.109c0.021,0.053,0.031,0.1,0.024,0.158c0,0.049,0.001,0.096,0,0.145
        c-0.038,0.004-0.022,0.08-0.076,0.072c-0.028,0-0.016,0.029-0.049,0.02c-0.042,0.043-0.111,0.021-0.166,0.021
        c-0.055-0.029-0.056-0.092-0.104-0.127c-0.052-0.031-0.118-0.014-0.151,0.033c-0.035,0.047-0.078,0.08-0.136,0.084
        c-0.018,0.064-0.091,0.021-0.137,0.039c-0.019-0.018-0.038-0.041-0.053,0c-0.04,0.027-0.066,0.039-0.109,0.055
        c-0.022,0.023-0.015,0.082-0.065,0.061c-0.039-0.01-0.081,0.006-0.076,0.043c-0.066-0.002-0.085,0.09-0.094,0.121
        c-0.06,0.004-0.081,0.076-0.128,0.105c-0.041,0.064-0.121,0.027-0.184,0.037c-0.044,0.02-0.083,0.037-0.115,0.072
        c-0.055,0-0.047,0.076-0.091,0.098c-0.011,0.039-0.008,0.059-0.03,0.088c0.005,0.037-0.002,0.072-0.025,0.098
        c0.021,0.029,0.039,0.061,0.003,0.09c-0.008,0.063,0.004,0.129-0.002,0.193c0.005,0.029,0.034,0.029,0.004,0.057
        c-0.008,0.047,0.007,0.1-0.029,0.131c0.021,0.059-0.025,0.09-0.055,0.119c-0.048-0.004-0.098-0.002-0.132,0.023
        c-0.031,0.018-0.058,0.059-0.088,0.055c-0.028,0.047-0.082,0.045-0.111,0.092c-0.01,0.023-0.006,0.053-0.047,0.047
        c-0.018,0.023,0.017,0.076-0.042,0.07c-0.029,0.018,0.005,0.066-0.036,0.088c0.003,0.029-0.029,0.037-0.026,0.076
        c-0.036-0.006-0.059,0.037-0.099,0.025c-0.03,0.029-0.061,0.02-0.083,0.061c-0.042,0.023-0.045,0.07-0.071,0.105
        c0.02,0.033-0.03,0.061-0.027,0.086c-0.029,0.029-0.004,0.086-0.052,0.102c-0.03,0.055-0.046,0.107-0.083,0.162
        c0.018,0.059-0.075,0.086-0.042,0.15c0.008,0.057-0.076,0.068-0.073,0.129c-0.009,0.055,0.018,0.084,0.049,0.117
        c-0.035,0.02-0.013,0.092-0.067,0.086c-0.028,0.057-0.1,0.035-0.15,0.039c-0.03,0.053-0.11-0.008-0.139,0.047
        c-0.059,0.002-0.085,0.059-0.138,0.074c-0.024,0.004-0.043,0.055-0.083,0.051c-0.023,0.033-0.06,0.004-0.05,0.055
        c-0.032,0.016-0.002,0.059-0.051,0.059c-0.042,0.021-0.067,0.061-0.073,0.111c-0.016,0.051-0.062,0.078-0.075,0.131
        c-0.053,0.016-0.015,0.078-0.055,0.104c-0.017,0.055,0.024,0.129,0.07,0.135c0.031,0.039,0.1-0.014,0.124,0.033
        c0.064,0.016,0.135-0.008,0.194,0.01c0.032,0.053-0.024,0.092-0.07,0.1c-0.027,0.049-0.102,0.082-0.091,0.143
        c-0.018,0.031-0.025,0.068-0.062,0.066c-0.033,0.043-0.104,0.053-0.107,0.107c-0.063,0.006-0.042,0.096-0.096,0.123
        c-0.044,0.018-0.021,0.072-0.051,0.1c-0.008,0.02-0.004,0.066-0.03,0.086c0.017,0.057-0.021,0.098-0.022,0.148
        c-0.014,0.041,0.01,0.08,0.047,0.076c0.029,0.023,0.046,0.063,0.057,0.088c0.045,0.023,0.034,0.076,0.08,0.104
        c0.043,0.02,0.079,0.037,0.123,0.063c0.045,0.002,0.002,0.072-0.005,0.096c-0.02,0.055-0.072,0.055-0.107,0.088
        c-0.04,0.063,0.027,0.1,0.013,0.164c-0.001,0.041,0.06,0.047,0.049,0.088c0.037,0.01,0.056,0.021,0.021,0.051
        c0.059,0.033,0.052,0.094,0.093,0.139c-0.021,0.063,0.067,0.076,0.047,0.143c-0.01,0.055-0.005,0.141,0.067,0.129
        c0.076-0.002,0.019-0.113,0.092-0.1c0.022-0.043,0.128-0.021,0.121,0.041c0.035,0.041,0.037,0.1,0.083,0.137
        c0,0.047,0.055,0.064,0.076,0.072c-0.044,0.041-0.018,0.109-0.02,0.164c0.021,0.037,0.031,0.094,0.09,0.092
        c0.025,0.061,0.099,0.027,0.127,0.088c0.033,0.033,0.065,0.08,0.11,0.1c0.04,0.006,0.055-0.053,0.077,0
        c0.034,0.041,0.078,0.088,0.136,0.068c0.045-0.02,0.023-0.088,0.084-0.072c0.03,0.008,0.067-0.012,0.076,0.021
        c0.059-0.002,0.098,0.027,0.135,0.07c0.021,0.027,0.021,0.074,0.043,0.104c-0.029,0.039-0.077,0.07-0.083,0.115
        c-0.051,0.043-0.089,0.098-0.082,0.168c0.008,0.061-0.041,0.096-0.023,0.16c0.021,0.045,0.074,0.078,0.085,0.123
        c0.042,0.049,0.091,0.049,0.126,0.105c0.039,0.004,0.052,0.039,0.083,0.055c0.021-0.033,0.087-0.014,0.107-0.064
        c0.024-0.004,0.065-0.008,0.077-0.027c0.027-0.002,0.055-0.031,0.074-0.033c0.021-0.025,0.079-0.008,0.091-0.037
        c0.036-0.01,0.063-0.041,0.106-0.023c0.042,0,0.064,0.039,0.111,0.021c0.065-0.018,0.107,0.041,0.09,0.1
        c-0.006,0.057,0.004,0.113-0.002,0.17c-0.038,0.043-0.052,0.102-0.044,0.162c-0.031,0.055-0.083-0.037-0.133-0.006
        c-0.046,0.002-0.081-0.008-0.103,0.037c-0.042,0.029-0.002,0.09-0.062,0.109c-0.019,0.041,0.018,0.125-0.049,0.121
        c-0.011,0.053-0.038,0.09-0.074,0.129c0.009,0.047-0.04,0.074-0.021,0.123c-0.019,0.063,0.009,0.123,0.073,0.131
        c0.01,0.016,0.042,0.016,0.059,0.033c0.014-0.049,0.044,0.02,0.073,0.008c-0.021,0.047-0.041,0.072-0.057,0.119
        c-0.016,0.008-0.01,0.045-0.036,0.057c0.002,0.033-0.027,0.045-0.033,0.082c-0.075,0.045-0.163,0.01-0.244,0.02
        c-0.002,0.025-0.035,0.041-0.031,0.066c-0.072-0.008-0.093,0.061-0.144,0.098c-0.055,0.025-0.019,0.086-0.05,0.125
        c-0.015,0.02,0.002,0.07-0.039,0.084c-0.033,0.039-0.092,0.043-0.123,0.076c-0.047,0-0.062,0.072-0.122,0.049
        c-0.045-0.014-0.057,0.035-0.107,0.023c-0.018,0.025-0.062,0.021-0.073,0.047c-0.063,0.008-0.146-0.027-0.19,0.031
        c-0.014,0.047-0.049,0.121-0.092,0.129c-0.024-0.055-0.086-0.053-0.121-0.018c-0.046-0.01-0.083-0.002-0.118,0.021
        c-0.044,0.031-0.112,0.078-0.115,0.139c-0.058,0.029-0.003,0.098,0.003,0.141c-0.008,0.047,0.011,0.1-0.036,0.121
        c-0.03,0.039-0.091,0.063-0.085,0.127c0.008,0.045-0.007,0.084,0.032,0.105c0.053,0.047-0.029,0.098-0.005,0.158
        c0.002,0.051-0.016,0.111,0.015,0.158c0.036,0.041,0.081,0.07,0.091,0.121c0.025,0.035-0.007,0.088,0.038,0.107
        c0.053-0.002,0.04,0.027,0.005,0.051c-0.018,0.039-0.034,0.059-0.045,0.1c-0.06,0.018-0.04,0.104-0.012,0.139
        c-0.015,0.057,0.005,0.133,0.077,0.119c0.043,0.018,0.079,0.049,0.118,0.09c0.048,0,0.034,0.07,0.082,0.082
        c0.019,0.016,0.022,0.039,0.032,0.066c0.038,0.02,0.055,0.074,0.104,0.074c0.044,0.029,0.051,0.07,0.06,0.115
        c0.037,0.047,0.115-0.008,0.143,0.043c0.06,0.014,0.142-0.027,0.172,0.035c0.028,0.035,0.106,0.08,0.044,0.129
        c0.008,0.051-0.09,0.027-0.11,0.004c-0.05,0.006-0.073-0.045-0.127-0.023c-0.042-0.006-0.067-0.041-0.115-0.021
        c-0.043-0.01-0.066-0.039-0.117-0.027c-0.031-0.039-0.088-0.016-0.135-0.023c-0.037-0.008-0.104,0.021-0.115-0.018
        c-0.029-0.008-0.07,0.002-0.083-0.029c-0.042,0.012-0.075-0.014-0.107-0.021c-0.049-0.002-0.087-0.047-0.131-0.057
        c-0.024-0.047-0.111-0.041-0.092-0.109c-0.022-0.006-0.041,0.049-0.052,0.004c-0.037-0.006-0.064-0.039-0.105-0.031
        c-0.039-0.043-0.104-0.008-0.155-0.021c-0.043-0.006-0.092,0.01-0.124,0.02c-0.023-0.029-0.047-0.018-0.071-0.043
        c-0.041,0.004-0.094-0.01-0.108,0.023c-0.05,0-0.072,0.055-0.123,0.049c-0.004,0.037-0.058,0.016-0.067,0.049
        c-0.008,0.021-0.013,0.053-0.027,0.061c-0.01,0.035-0.04,0.063-0.024,0.104c-0.013,0.029-0.044,0.053-0.004,0.08
        c0.008,0.031-0.001,0.061,0.03,0.082c-0.024,0.057,0.035,0.084,0.018,0.139c0.005,0.035,0.048,0.057,0.003,0.086
        c0.004,0.082-0.108,0.004-0.147,0.055c-0.021,0.012-0.066,0.002-0.082,0.031c-0.033,0.008-0.076-0.006-0.09-0.02
        c-0.032,0.041-0.129-0.006-0.121,0.072c-0.025,0.025-0.082,0.029-0.079,0.086c-0.028,0.006-0.045,0.006-0.043,0.045
        c-0.024,0.018-0.01,0.057-0.057,0.059c-0.034,0.02,0.02,0.082-0.031,0.098c0.013,0.047-0.068,0.055-0.047,0.107
        c-0.035,0-0.021,0.057-0.048,0.068c0.016,0.063-0.037,0.096-0.023,0.162c-0.004,0.043,0.066,0.051,0.048,0.096
        c0.037,0.016,0.023,0.088,0.082,0.078c0.025,0.023,0.075,0.027,0.094,0.074c0.065,0.023,0.048,0.1,0.073,0.141
        c0.061,0.031-0.003,0.117,0.053,0.145c0.016,0.039-0.047,0.047-0.003,0.076c0.024,0.051-0.04,0.07-0.019,0.121
        c-0.012,0.055,0.001,0.115,0.055,0.146c0.051,0.064-0.055,0.057-0.094,0.049c-0.032-0.02-0.066-0.039-0.096-0.07
        c-0.034,0.008-0.035-0.031-0.074-0.029c-0.038-0.037-0.095-0.047-0.154-0.037c-0.058-0.021-0.113-0.072-0.185-0.047
        c-0.028,0.041-0.096,0.006-0.124,0.043c-0.043-0.006-0.059,0.027-0.095,0.033c-0.022,0.031-0.04,0.066-0.049,0.102
        c-0.007,0.006-0.029,0.027-0.025,0.053c-0.017,0.023-0.039,0.057-0.044,0.088c-0.033,0.02-0.027,0.107-0.008,0.129
        c0.02,0.031,0.06,0.047,0.077,0.059c0.01,0.072-0.003,0.146,0.004,0.219c0.052,0.025,0.042,0.08,0.09,0.111
        c0.027,0.037,0.074,0.064,0.112,0.066c0.023,0.027,0.055,0.008,0.068,0.045c0.01,0.037,0.002,0.082,0.062,0.066
        c0.032,0.023,0.097,0.047,0.107,0.096c0.021,0.027,0.029,0.057,0.028,0.088c0.03,0.021,0.015,0.047,0.041,0.066
        c-0.009,0.045,0.079,0.061,0.027,0.094c-0.008,0.084,0.003,0.168-0.004,0.25c0.009,0.047,0.039,0.078,0.023,0.129
        c0.014,0.047,0.039,0.084,0.073,0.121c-0.015,0.043,0.052,0.021,0.058,0.053c0.047-0.002,0.055,0.068,0.109,0.049
        c0.03,0.016,0.049,0.059,0.084,0.055c0.048,0.041,0.086,0.133,0.164,0.107c0.057,0.02,0.047,0.092,0.1,0.117
        c0.053-0.01,0.038,0.094,0.104,0.078c0.035-0.016,0.056-0.035,0.102-0.025c0.046,0,0.086-0.006,0.116,0.025
        c0.059-0.004,0.115-0.002,0.173-0.002c0.064,0.014,0.094,0.084,0.106,0.139c0.055,0.025,0.053,0.102,0.091,0.139
        c0.041,0.033,0.078,0.082,0.122,0.119c0.047,0.006,0.075,0.078,0.137,0.053c0.048,0,0.129,0.018,0.135-0.053
        c0.011-0.066,0.092-0.023,0.126-0.057c0.034-0.02,0.119,0.006,0.142-0.025c0.043,0.031,0.114,0.025,0.148-0.01
        c0.048-0.006,0.065,0.053,0.116,0.025c0.058-0.016,0.137,0.018,0.117,0.088c0.011,0.055-0.029,0.082-0.072,0.105
        c-0.065-0.004-0.022,0.098-0.073,0.105c-0.026,0.035-0.047,0.059-0.09,0.064c-0.032,0.043-0.083,0.094-0.068,0.158
        c0.036,0.033,0.038,0.115-0.026,0.119c-0.022,0-0.038,0.049-0.052,0c-0.026,0.041-0.075,0.01-0.105,0.049
        c-0.034-0.01-0.022,0.033-0.065,0.025c-0.018,0.018-0.006,0.051-0.042,0.066c-0.018,0.039-0.034,0.059-0.044,0.1
        c-0.013,0.037-0.087-0.004-0.083,0.041c-0.059-0.018-0.095,0.029-0.104,0.078c-0.028,0.021,0.006,0.086-0.036,0.107
        c0.009,0.057,0,0.119-0.06,0.145c-0.037,0.006-0.044-0.041-0.084-0.021c-0.055,0-0.089-0.061-0.149-0.051
        c-0.039-0.027,0.056-0.07-0.012-0.07c-0.027-0.008-0.033-0.029-0.069-0.02c-0.056,0-0.076-0.076-0.142-0.049
        c-0.071,0.021-0.108-0.035-0.151-0.078c-0.016-0.035-0.071,0.002-0.086-0.043c-0.051,0.014-0.074-0.039-0.127-0.021
        c-0.044,0.002-0.066,0.035-0.114,0.023c-0.045,0.008-0.044,0.068-0.097,0.047c-0.035,0.025-0.096,0.035-0.093,0.096
        c-0.038-0.004-0.003,0.059-0.042,0.055c0.02,0.051-0.056,0.082-0.005,0.123c0.019,0.033-0.035,0.045-0.02,0.086
        c-0.034,0.053-0.083,0.09-0.093,0.154c0.007,0.041-0.011,0.098,0.024,0.117c-0.008,0.064,0.074,0.045,0.098,0.074
        c-0.021,0.047,0.061,0.104-0.009,0.141c-0.043,0.012-0.081,0.004-0.116,0.029c-0.043,0-0.073,0.045-0.125,0.023
        c-0.041,0.01-0.072,0.043-0.123,0.018c-0.048-0.018-0.006-0.086-0.047-0.094c-0.005-0.076,0-0.154-0.001-0.23
        c-0.068-0.014-0.039-0.094-0.048-0.145c-0.026-0.053-0.058-0.102-0.044-0.162c0-0.061,0-0.127,0-0.189
        c0.047-0.012,0.019-0.1,0.015-0.117c-0.044-0.027-0.035-0.078-0.083-0.107c0.001-0.041-0.053-0.064-0.058-0.104
        c-0.019-0.021-0.012-0.057-0.04-0.063c-0.053-0.039-0.05-0.092-0.042-0.152c0.011-0.07-0.019-0.137-0.073-0.182
        c-0.034-0.043-0.097-0.053-0.136-0.08c-0.044,0.006-0.058-0.027-0.101-0.025c-0.031-0.025-0.053-0.053-0.096-0.047
        c-0.022-0.016-0.004-0.066-0.047-0.043c-0.025,0.031-0.056,0.014-0.069,0.043c-0.042,0.006-0.08,0.051-0.08,0.088
        c-0.037,0.006-0.054,0.027-0.054,0.057c-0.03,0.039-0.077,0.014-0.105,0.051c-0.037,0-0.064,0.068-0.118,0.045
        c-0.011,0.066-0.101,0.027-0.127,0.094c-0.034,0.047-0.087,0.049-0.12,0.094c-0.06-0.006-0.074,0.092-0.019,0.117
        c0.02,0.033,0.006,0.063,0.034,0.096c0.008,0.057-0.017,0.123,0.028,0.168c-0.011,0.053-0.003,0.104,0.019,0.145
        c-0.007,0.051,0.022,0.127-0.025,0.15c-0.008,0.031,0.048,0.049,0.007,0.059c-0.004,0.064-0.076,0.088-0.105,0.139
        c-0.03,0.014-0.004,0.074-0.039,0.09c0.003,0.074-0.103,0.027-0.097,0.09c-0.008,0.049-0.088,0.016-0.065,0.072
        c0.011,0.051-0.035,0.068-0.024,0.117c-0.044,0.027-0.002,0.094-0.045,0.123c-0.01,0.063-0.072,0.064-0.108,0.1
        c-0.017,0.037,0.003,0.082-0.054,0.074c-0.008,0.047-0.066,0.041-0.095,0.051C17.195,317.463,17.202,317.477,17.198,317.49z
         M16.249,317.49c0.018,0.055-0.037,0.041-0.022,0.094c-0.013,0.053,0.016,0.064,0.023,0.098c-0.004,0.037,0.014,0.096-0.024,0.1
        c0.016,0.055-0.025,0.055-0.023,0.098c-0.023,0.014-0.027,0.047-0.022,0.092c0,0.039-0.019,0.061-0.057,0.063
        c-0.005-0.029-0.064-0.008-0.059-0.047c-0.039,0-0.031-0.047-0.066-0.049c0.01-0.049-0.036-0.039-0.027-0.086
        c0.018-0.021,0.051-0.025,0.046-0.066c0.009-0.031-0.016-0.096,0.014-0.107c0-0.039,0.073-0.002,0.056-0.055
        c0.008-0.031,0.05-0.027,0.048-0.064c0.011-0.027,0.032-0.041,0.021-0.09c-0.013-0.053,0.063-0.02,0.092-0.027
        C16.25,317.459,16.249,317.475,16.249,317.49z"></path>
    </g>
    </svg>
